<?xml version="1.0" encoding="utf-8"?>
<!-- Generator: Adobe Illustrator 18.0.0, SVG Export Plug-In . SVG Version: 6.00 Build 0)  -->
<!DOCTYPE svg PUBLIC "-//W3C//DTD SVG 1.1//EN" "http://www.w3.org/Graphics/SVG/1.1/DTD/svg11.dtd">
<svg version="1.1" id="Layer_1" xmlns="http://www.w3.org/2000/svg" xmlns:xlink="http://www.w3.org/1999/xlink" x="0px" y="0px"
	 viewBox="0 0 43.7 50.3" enable-background="new 0 0 43.7 50.3" xml:space="preserve">
<g>
	<g>
		<g>
			<g>
				<g>
					<path fill="#FFFFFF" d="M42.6,8C42.6,8,42.6,7.9,42.6,8l-0.1,0.1L42.6,8z"/>
					<path fill="#FFFFFF" d="M42.2,7.7C42.1,7.8,42,8,42,8.2c0.1-0.2,0.1-0.2,0.2-0.4c0.1,0,0.1,0.1,0.1,0.1c0,0,0.1,0,0.1-0.1
						c-0.1-0.1-0.2-0.2-0.3,0C42.2,7.8,42.2,7.7,42.2,7.7z"/>
					<path fill="#FFFFFF" d="M36.5,5.2l0,0.1C36.6,5.3,36.6,5.3,36.5,5.2z"/>
					<path fill="#FFFFFF" d="M33,3.7c0,0,0.1-0.2,0.1-0.3C33,3.5,33,3.6,33,3.7z"/>
					<path fill="#FFFFFF" d="M32.5,2.1C32.5,2.1,32.5,2.2,32.5,2.1C32.5,2.1,32.5,2,32.5,2.1z"/>
					<path fill="#FFFFFF" d="M36.5,5.2l-0.1-0.4C36.4,5.2,36.5,5.2,36.5,5.2z"/>
					<path fill="#FFFFFF" d="M41.3,8.5c0,0,0-0.1,0.1-0.1C41.3,8.4,41.3,8.4,41.3,8.5L41.3,8.5z"/>
					<path fill="#FFFFFF" d="M38.2,5L38.2,5c0.1-0.1,0.1-0.2,0.1-0.3L38.2,5z"/>
					<path fill="#FFFFFF" d="M39.5,5.4c0,0-0.1,0.6-0.2,0.8c0.1-0.2,0.1-0.4,0.1-0.4C39.4,5.8,39.4,5.6,39.5,5.4z"/>
					<path fill="#FFFFFF" d="M41.2,7.1L41.2,7.1C41.2,7.1,41.2,7.1,41.2,7.1z"/>
					<path fill="#FFFFFF" d="M37.4,4.5c0-0.1,0-0.2,0-0.3C37.4,4.3,37.4,4.4,37.4,4.5z"/>
					<path fill="#FFFFFF" d="M2.1,6.3C2.1,6.3,2.1,6.3,2.1,6.3C2.1,6.3,2.1,6.3,2.1,6.3z"/>
					<polygon fill="#FFFFFF" points="0.6,5.6 0.6,5.6 0.6,5.5 					"/>
					<path fill="#FFFFFF" d="M31.5,0.4C31.5,0.4,31.5,0.4,31.5,0.4C31.5,0.3,31.5,0.3,31.5,0.4z"/>
					<path fill="#FFFFFF" d="M20.4,1.7c0.1,0.8-0.2,1-0.1,1.8C20.3,3.2,20.5,2.1,20.4,1.7z"/>
					<path fill="#FFFFFF" d="M41.2,8.4C41.2,8.4,41.2,8.4,41.2,8.4C41.2,8.5,41.2,8.4,41.2,8.4z"/>
					<path fill="#FFFFFF" d="M20.3,3.5L20.3,3.5L20.3,3.5C20.3,3.5,20.3,3.5,20.3,3.5z"/>
					<path fill="#FFFFFF" d="M28.7,0.8c0,0.2,0,0.4,0,0.5C28.7,1.2,28.7,1.1,28.7,0.8z"/>
					<path fill="#FFFFFF" d="M30.5,2.6l0-0.2C30.5,2.6,30.5,2.6,30.5,2.6z"/>
					<path fill="#FFFFFF" d="M27.5,2.5C27.4,2.4,27.4,2.2,27.5,2.5C27.4,2.4,27.4,2.5,27.5,2.5C27.4,2.3,27.4,2.3,27.5,2.5z"/>
					<path fill="#FFFFFF" d="M26.4,2.5c0,0.1,0,0.1,0,0.2l0-0.1L26.4,2.5z"/>
					<path fill="#FFFFFF" d="M5.4,6.7c0-0.1,0-0.2-0.1-0.3C5.3,6.6,5.2,6.7,5.4,6.7z"/>
					<path fill="#FFFFFF" d="M41.3,8.3c0,0.1,0,0.1-0.1,0.1l0,0C41.3,8.4,41.3,8.3,41.3,8.3z"/>
					<path fill="#FFFFFF" d="M26.7,11.3L26.5,11C26.6,11.2,26.6,11.2,26.7,11.3z"/>
					<path fill="#FFFFFF" d="M13,7.6L13,7.6C13,7.7,13,7.7,13,7.6z"/>
					<path fill="#FFFFFF" d="M26,11.1c0-0.4,0-0.6,0-0.8c0,0.1,0,0.2,0,0.3L26,11.1z"/>
					<path fill="#FFFFFF" d="M5.4,6.4L5.4,6.4L5.4,6.4z"/>
					<path fill="#FFFFFF" d="M4.2,6.9c0.2,0,0.1-0.3,0.1-0.6c0.2-0.1,0.1,0.3,0.2,0.5c0.1-0.1,0.2-0.4,0.3-0.4c0,0.1,0,0.1,0,0.2
						c0.1-0.3,0.4,0,0.5-0.4c0,0,0,0.1,0,0.1c0-0.2-0.1-0.4-0.1-0.6c0.1,0,0.1-0.3,0.2,0c0,0,0,0.1-0.1,0.2l0.1-0.1
						C5.5,6.3,5.3,6,5.3,6.3C5.5,6.2,5.6,5.8,5.8,6c0,0.4-0.3,0.1-0.1,0.5L5.5,6.3c0.2,0.7-0.1-0.1,0,0.6c0.2,0.2,0.2-0.2,0.5,0
						c0-0.2,0-0.4,0-0.6c0.3-0.4,0.3,1.1,0.5,0.6c0-0.3,0-0.9,0.2-0.6l0,0.5C7,7,6.9,6.1,7.1,6.5c0,0.2-0.2,0.2-0.1,0.2
						c0.2,0.4,0.1-0.3,0.2-0.3l0,0.5c0.2,0,0.5-0.4,0.7-0.5c0,0.2,0,0.3,0,0.5c0.3-0.2,0.7,0.1,1,0.6L9.1,7c0,0,0.1,0.2,0,0.3
						c0.1,0.2,0-0.3,0.1-0.5c0.1,0,0.1,0.3,0.1,0.5C9.5,6.9,9.9,6.4,10.1,7l0,0.2c0.2,0.2,0.2-1.1,0.4-0.6l0,0.1
						c0.4,0.3,0.8-0.2,1.1,0.7c0-0.9,0.4,0.4,0.4-0.8c0.2,0.6,0.2,0.9,0.5,1.3c0.1,0.1,0.1-0.8,0.2-0.9l0,0.7L12.8,7l0.1,0.8L13,7.7
						c0,0-0.1-0.3-0.1-0.5c0.2-0.3,0.4,0.5,0.4,0.9l0.4-0.5c0,0.3-0.1,0.4-0.1,0.6c0.2-0.7,0,0.8,0.2,0.1c0-0.2,0-0.4,0-0.6
						C13.8,8.1,14,8.1,14.2,8l0,0.5c0.3,0.2,0.6-0.1,0.9-0.1c-0.1-0.3-0.1-1.2,0-1.3l0,0.8c0.1-0.5-0.1-0.3,0-0.9
						c0.1,0.1,0.1,0.9,0,1.2L15.2,8c0,0.2,0,0.4,0,0.7c0.1-0.5,0.2,0.9,0.3,0l0,0.2c0.3,0.1,0.4-0.2,0.7-0.2c0-0.7,0.1-0.6,0.2-1.2
						c0.2,0.3,0.4,0.9,0.6,0.9C17.1,8,17,7.7,17.1,7.3c0,0.7,0.2,0.7,0.1,1.2c0.3-0.1,0.3-0.1,0.7-0.6c0-0.3-0.1-0.4,0-0.7
						c0.1-0.1,0.1,0.3,0.1,0.7l0,0.1c0.4-1.1,0.8,2.3,1.1,0.8l0,0.1l0.3-0.8c0.1,0.2-0.1,0.6,0,1c0.4-1.2,0.5,0.3,0.8-0.5
						c0.1,2.4,0.7-0.1,0.9,1.5l0-0.6c0.1-0.5,0.1,0.3,0.1,0.5c0-0.4-0.1-0.5,0-0.8c0.6-0.6,1.2,1.1,1.8,1.8c0.2,0.2,0.3-3.1,0.5-1.6
						l-0.2,1.1c0.5-1.3,0.9,0.3,1.4-0.8c0,0.3-0.1,0.6-0.1,0.6c0,0.9,0.3,0.2,0.4-0.6c0.1,0.1,0,0.7,0,1c0.1,0.6,0.3-1.1,0.3-0.2
						c0,0.1,0,0.3-0.1,0.3c0.1-0.4,0.3,0.2,0.3-0.9c0.1,0.5,0.4-0.4,0.4,0.3c0.2-1.2,0.2,0.7,0.4-1c-0.2,1.8,0.2,1.5,0.3,0.7
						c-0.1,0.5,0,0.6-0.1,1.3c0.1,0,0.3-0.3,0.3-1.2c0,2.2,0.6-1.7,0.5,1.2c0.4-0.9,0.8-1.5,1.2-1.9c-0.2,1.9-0.4,0.1-0.5,2.1
						c0.4-0.7,0.7-2.3,1-1.8c0.1,0.3-0.1,0.8-0.2,1.1c0.4-0.7,0.6,0.2,1-0.8c0,0.2-0.1,0.4-0.1,0.5c0.1-0.1,0.1,0.3,0.2-0.6
						l-0.1,0.2c0-1.2,0.5-2.6,0.6-3.2c-0.4,2.4,0.2,0.6-0.3,3.7c0.1-0.2,0.1-0.6,0.2-1.1c0,0.2,0,0.5-0.1,1.1
						c0.2-0.5,0.3-1.3,0.4-1.3c0,0.4-0.1,0.6-0.2,1c0.2-0.8,0.4-1.6,0.5-1.2c0,0.2-0.1,0.6-0.1,0.6c0.3-0.1,0.7-2.1,0.9-1.3
						c-0.3,1.7,0,0.6-0.1,2.1l0.2-0.4l0-0.7c0.1,0,0.4-1,0.4-0.6l-0.2,0.6L32.4,9l-0.1-0.6c0.2-0.7,0-1.8,0.2-1.4
						c-0.1,0.1-0.1,0-0.1,0.9v0c0-0.5,0.4-0.9,0.5-0.6c0,0.5-0.1,1.6-0.1,1.9C33,8,33.2,8.9,33.4,7.6c-0.1,0.3-0.1,1-0.1,1.2
						l0.2-0.9c0,0.3,0,0.5-0.1,1c0.2,0.2,0.2-1.8,0.3-1c0,0.1,0,0.2-0.1,0.4c0.2,0.4,0.5-0.6,0.7-0.1c-0.1,1.3-0.2,0.3-0.3,1.5
						C34.3,9.3,34.8,8,35,8.3l0-0.1c0.3-1.8,0.1,0.9,0.4,0.1c-0.1,0.1-0.2,1-0.1,0.8c0.2,0.3,0.5-0.5,0.8-1l-0.1,0.4
						c0.1,0.4,0.3,0.2,0.4,0.4c0.1-0.4,0.2-0.3,0.2-0.9c0,1.2,0.3,0.8,0.5,0.5c0.2-0.4,0.5-0.7,0.5,0.2c0,0-0.1,0.3-0.1,0.3l0.3-0.4
						c0.1-0.6,0-0.4,0-0.8C37.8,7.3,38,7.1,38,7.1c-0.2,0.4-0.1,1-0.1,1.3C37.9,8.2,38,8,38,7.8c0,1.1,0.2-1.2,0.3-0.5l-0.1,0.3
						c0.1-0.2,0.2-0.5,0.3-0.4c-0.1,0.6-0.1,0.3-0.2,0.8c0.1-0.1,0.4-1.2,0.4-0.6c-0.1,0.2-0.2,0.2-0.2,0.3c0,0.7,0,0.5,0.1,0.7l0,0
						l0.2,0.3l0-0.2c0.4-1.5,0.4-0.3,0.7-1.2c-0.3,0.9-0.1,0.5-0.2,1.1c0,0.2,0.1,0.3,0,0.5c0.2-0.5,0.1,0.3,0.4-0.4
						c0,0.2,0.1,0,0,0.5c0.2-0.2,0-0.3,0.1-0.5c0.1-0.3,0.2-0.1,0.3,0c0.1,0.1,0.2,0.2,0.4-0.2c0.3-0.3,0.4-0.8,0.7-0.9
						c0,0.2-0.1,0.5-0.1,0.5c0.1,0.2,0.2,0.1,0.3,0c0,0.1,0,0.2,0,0.3c0.1,0,0.1-0.4,0.2-0.2c0,0.1-0.1,0.3-0.2,0.4
						c0.1-0.1,0.3-0.3,0.4-0.4c0,0.2-0.1,0.2-0.2,0.4c0.1-0.1,0.4-0.2,0.4-0.4l-0.1-0.1c0,0,0,0.2-0.1,0.2c-0.1,0.2-0.1-0.1-0.1-0.2
						l0.1-0.1c0-0.5-0.3,0.1-0.5,0.1l0.1-0.5l-0.2,0.4c0-0.1,0-0.4,0.1-0.5c-0.1-0.3-0.1,0.2-0.2-0.2c0,0,0-0.1,0-0.1l-0.1,0.1
						c0-0.1,0.1-0.4,0.1-0.3c-0.1-0.4-0.4,0.3-0.4-0.1l0,0c-0.3,0.1-0.1,0.4-0.4,1l0.1-1.3L40.4,7c0,0-0.1-0.1,0-0.3
						c-0.2,0.3,0,0.2-0.1,0.6c0-0.5-0.4,0.2-0.3-0.8c-0.1,0.4,0.1,0.4-0.1,0.6c0.1-1-0.2,0.1-0.2-0.4c0.1-0.5,0.2-0.2,0.2-0.7
						c-0.2,0.9-0.2-0.3-0.3-0.2c-0.1,0.8-0.3,0.3-0.5,0.5c0.1-0.3-0.2-0.6-0.4-1l0-0.2c-0.2,0.9-0.3,0.7-0.5,0.8
						c0.1-0.6,0.1-0.8,0.3-1l-0.1,0c-0.1,0.3-0.1,0.4-0.2,0.5l0.1-0.7c-0.2,0-0.4,0.8-0.5,0.2c-0.1,0.7-0.1,2-0.4,2.5
						c0.1-0.4,0.1-1.1,0.2-1.2c0,0-0.1,0.3-0.1,0.1l0.2-0.6c0-0.3-0.1,0.5-0.2,0.5c0.1-0.6,0-0.4,0.1-0.9c0,0,0,0.3,0.1,0
						c-0.1-0.1-0.1-0.5-0.1-0.9c0,0.3-0.1,0.8-0.2,0.8c-0.2,0,0.1-0.7,0-1.1c-0.1,0.4-0.1-0.1-0.3,0.8c0,0,0-0.4,0-0.7
						c-0.1,0.4-0.4,0-0.4,1l0,0.1c0,0,0,0,0,0l0,0l0,0c-0.4,0.9-0.5-0.7-0.8-0.3l0-0.3c-0.2,0.3-0.4,0.1-0.6,0.8c0,0,0-0.6,0.1-1
						c-0.2,0.2-0.2,0.6-0.3,0c0.2-0.6,0-0.5,0.2-0.4c-0.1-0.3-0.1-0.9-0.4,0c0.2-0.9,0-1.2-0.1-0.9l0,0.7c-0.1,0.1-0.2,0-0.2-0.1
						l0.2-1.2c-0.1-1.6-0.9,2.4-0.8-0.2c-0.2,0.9,0.1,0.7-0.1,1.7c-0.1-0.2,0-2.1-0.1-2.1c-0.1-0.8-0.4,1.8-0.6,1.3
						c0,0.5-0.2,1.7-0.4,2.1c-0.1-0.2,0.1-2,0.2-2.3c0,0,0,0.1,0,0.3c0.1-0.2,0.2-0.3,0.2-0.9L33.1,3c0-0.5-0.2-0.5-0.1-1.2
						c-0.2,0.4-0.1,0.8-0.1,1c-0.1-0.7-0.3-0.1-0.4-0.6c0,0.3,0,0.8-0.1,0.8c-0.2-0.6-0.2,0.9-0.4,1.1c0-0.7,0.2-1.7,0-1.2
						c-0.1-0.5,0.1-1.3,0.2-1.7c-0.3,0.9-0.3-0.7-0.3-0.9L32,0c-0.1,0.2-0.1,0.2-0.2,0.2l-0.1,1c0-0.2-0.1-0.2,0-0.6
						c-0.1,0.6-0.1,1.6-0.3,2.5c0-0.5-0.3,0.5-0.2-0.8c0.2,0.5,0.1-1.3,0.3-1.5c-0.1,0.1-0.1,0.1-0.1,0c0-0.1,0-0.3,0.1-0.3
						c-0.1-1.2-0.3,1.4-0.5,1.4c0.1-0.7,0.1-1.4,0-1.2c0.1,0-0.1,1.2-0.2,1.8c-0.1-0.6-0.2,0.4-0.3,0.3l0.1,0.3
						c-0.1,0.7-0.2,0.6-0.3,0.8c0.1-0.6,0.1-0.4,0.1-0.6c-0.2,1.3-0.1-1.4-0.4-0.5c0-0.5,0.1-1.4,0.1-1.7c-0.3,0.9-0.1-1-0.4-0.2
						c0,1,0,0.8-0.2,1.7l0.4-0.7l-0.3,1.4c0.1,0,0.3-0.6,0.3-0.4c-0.2,0.8-0.1,0.6-0.2,1.4c0-1.5-0.3,0.8-0.4-0.2l0.2-2.4
						c-0.1-1.1-0.5,1.2-0.7,0.6l0.1,0.4c-0.1,1-0.2,0.1-0.3,0.5c0.1-0.8,0.1-1.1,0.1-1.6c0,0.6-0.2-0.1-0.4,1.6l0-1.1
						c-0.2-0.4-0.5,2.3-0.7,2c0.1-0.9,0.1-1.4,0.3-2c-0.1,0-0.1-0.1-0.2,0.4c0-0.5-0.3,1.1-0.3,0.3c-0.1,0.3-0.1,1.2-0.2,1.1
						c0-0.2,0-0.4,0-0.4c0,0.4-0.2,0.5-0.2,1.4c0-2.4-0.6,0.2-0.7-1.9C26.2,3,26,3.2,25.8,3.3c0-0.2,0-0.4,0.1-0.3
						c-0.2-0.7-0.3,2.1-0.5,1.3c0-1.2,0.2-0.6,0.1-1.1c0.1-2.4-0.3,0.3-0.4-1l0-0.1c-0.1-0.8-0.4,0.9-0.5,0.7c0,0,0-0.2,0-0.3
						C24.5,3.6,24.2,4,24,4.3c0.1-0.9,0.1-0.5,0.1-1.4c-0.1,0.1-0.1,1.4-0.3,1.7c0-0.5-0.1-0.9-0.1-1.8L24,2.8
						c0-1.2-0.2,0.1-0.3-0.2l0-0.5c-0.3,0.2-0.3,1.5-0.6,1.4l0,0.4c-0.2,1.3-0.1-0.7-0.3,0.2l0-1.3c-0.1,0.3-0.4,1.3-0.6,1.5
						c0.1-1,0.4-1.4,0.5-2c-0.1,0-0.3,0.1-0.4,0.7c0-0.1,0.1-0.4,0.1-0.2c-0.2,1-0.3,1.5-0.5,1.5c0.2-2.5-0.4-0.6-0.5-2.5
						c-0.4,0.9-0.6-0.3-1-0.2c0.1,1.8-0.1,0.1-0.2,1.9c-0.1,0.1-0.1,0.1-0.1,0l-0.2-1.1c0-0.5,0.1-0.4,0.1-0.8
						c-0.2-0.1,0-0.8-0.2-1.3c0,0.7-0.1,1-0.2,0.7L20,1.9c-0.3,1-0.2-1.5-0.5-0.5l0.1-0.6c-0.2,0.3-0.5,0-0.7,1.5c0-0.2,0-0.7,0-0.8
						c-0.3-0.2-0.8,1.6-1,0.7l0-0.4c-0.1,0.1-0.1,0.8-0.2,0.4c0-0.2,0-0.4,0-0.4c0,0.1-0.2,0.7-0.3,0.5l0.1-0.5
						c-0.3-0.5-0.5,1.2-0.8,1.5c0-1.2-0.2-1.5-0.4-1.7l0-0.2c-0.4-0.1-0.7,1.1-1,1.5c-0.2-1.2-0.7-0.4-1.1-1c0.1,0.2,0,0.8-0.1,0.9
						C14.2,2.5,14,3.5,14,2.5l0,0c-0.1-0.9-0.2-0.7-0.4-0.7l0,1.2c-0.3-1.7-0.8,0.7-1-0.8c-0.1,0.3-0.2,0.3-0.2,0.6V2.3
						c0-0.1-0.4-0.2-0.7,0l0-0.4c-0.2,0-0.2,1.7-0.3,1.8l-0.1-0.9c-0.3,0-0.6-0.6-0.8,0.2c0-0.1,0-0.4,0-0.4c-0.1,0-0.5-0.4-0.4,0.6
						c0-0.7-0.3,0-0.4,0.3l0-0.5c-0.1,0.7-0.1,0.8-0.3,1c0-0.1,0-0.4,0-0.3C9.3,3.6,9.3,4.3,9.2,4l0.1-0.3C9.1,3.7,9.1,3.9,9,4.2
						C8.9,4.4,8.8,4.1,8.7,3.7c0,0.3-0.1,0.6-0.2,0.5c0-0.2,0-0.3,0-0.3C8.3,3.6,8.2,4.5,8.1,4.1c0-0.1,0-0.2,0-0.3
						c0.2,0,0.3,0,0.3,0c0-0.4-0.2-0.5-0.1-1.1C8.2,3.1,8,3.8,7.8,3.7c0,0,0-0.1,0-0.1l0,0c0,0-0.1,0-0.1,0.1c0-0.1-0.1-0.1-0.1-0.1
						c0-0.3-0.2-0.1-0.3-0.1c0,0.4-0.1,0.4,0,0.7c0,0,0-0.1,0.1-0.1c0,0,0,0,0,0l0,0c0,0,0.1,0,0.2-0.1C7.6,4.1,7.5,4.3,7.4,4.1
						c0,0.3-0.1,0.6-0.1,0.7C7.2,4.2,7,3.9,7,3.6c-0.2,0.3-0.5,0.3-0.7,1C6.3,4.6,6.2,4.4,6.2,4.3c0-0.1,0.1-0.1,0.1-0.2
						C6.2,4.3,5.9,4.2,5.9,4.7C5.7,4.5,6,4.2,5.8,4.4l0-0.1c-0.2-0.3-0.4,0-0.6,0.3C5,4.8,4.8,5,4.6,4.6c0,0,0.1,0.1,0.1,0.1
						c-0.3-0.1-0.6,0-0.9,0.1C3.5,4.9,3.2,5,2.9,4.8C2.7,4.8,2.7,5,2.6,5.1l0-0.2L2.4,5.2C2.2,5.4,2,4.8,1.7,5.1l0,0.1
						c-0.1,0-0.3,0.1-0.3,0c0,0,0,0.1-0.1,0.1l0-0.1L1.1,5.4c-0.2,0,0-0.3-0.3-0.3C0.7,5.2,0.5,5.4,0.6,5.4c0,0,0.1,0,0.1,0.1
						l-0.1,0c0,0.2-0.1,0.4,0.2,0.5L1,6L1,6.1l-0.1,0c0.1,0.1,0.1,0,0.2,0c0,0.1,0,0.1,0.1,0.1L1.3,6c0,0.1-0.1,0.2,0.1,0.2
						c0.1-0.1-0.1-0.2,0-0.3c0.1,0.1,0.1,0.2,0.2,0.1c0,0.1,0,0.1,0,0.1c0.1-0.1,0.2,0,0.3-0.2c0.1,0.2,0.3,0,0.3,0.3
						c0-0.1,0.1-0.2,0.2-0.2c-0.1,0.3,0.3,0,0.3,0.5C2.7,6.2,3,6.4,3.2,6.3c0,0,0,0.1,0,0.1c0.1,0,0.1,0.2,0.2,0.3
						c0-0.3,0.2-0.4,0.2-0.6c0.2,0.4-0.1,0.4,0,0.7c0-0.3,0.2-0.3,0.2-0.5c0.1,0.2,0.1,0.1,0.2,0.4c0-0.5,0.1-0.1,0.2-0.3
						c0.2,0.2,0.1,0.5,0.2,0.3C4.4,6.8,4.2,6.9,4.2,6.9z M8,6.3L8,6.3C7.9,6.4,7.9,6.4,8,6.3C7.9,6.4,7.9,6.3,8,6.3z M8.3,6.4
						c0,0-0.1,0-0.1,0c0-0.2,0-0.3,0-0.3C8.2,6.1,8.2,6.2,8.3,6.4z M7.5,3.4C7.6,3.3,7.6,3.4,7.5,3.4c0.1,0.1,0,0.1,0,0.2l0,0.1
						C7.5,3.5,7.5,3.4,7.5,3.4z"/>
					<path fill="#FFFFFF" d="M7.4,3.9C7.4,4,7.4,4,7.4,3.9c0,0.1,0,0.1,0,0.1L7.4,3.9L7.4,3.9z"/>
					<path fill="#FFFFFF" d="M36.6,5.4L36.6,5.4c0,0,0,0.1,0,0.1C36.6,5.5,36.6,5.4,36.6,5.4z"/>
					<polygon fill="#FFFFFF" points="12.7,7.9 12.7,7.7 12.6,7.9 					"/>
					<path fill="#FFFFFF" d="M37.9,8.4c0,0.1,0,0.1,0,0.2C37.9,8.5,37.9,8.4,37.9,8.4z"/>
					<path fill="#FFFFFF" d="M38.6,8.5l0.1,0.2C38.7,8.6,38.7,8.5,38.6,8.5z"/>
					<path fill="#FFFFFF" d="M39.2,8.7c0-0.1,0-0.2,0.1-0.2l0,0L39.2,8.7z"/>
					<path fill="#FFFFFF" d="M29.8,10.4C29.8,10.4,29.7,10.4,29.8,10.4C29.7,10.7,29.7,10.6,29.8,10.4z"/>
					<path fill="#FFFFFF" d="M32.8,7.9c-0.1,0.2-0.1,0.4-0.2,0.5C32.7,8.5,32.7,8.5,32.8,7.9z"/>
					<path fill="#FFFFFF" d="M26.7,11.3C26.7,11.3,26.7,11.3,26.7,11.3C26.7,11.3,26.7,11.3,26.7,11.3L26.7,11.3z"/>
					<path fill="#FFFFFF" d="M32.5,8.4c0,0.2,0.1,0.2,0.1,0C32.6,8.3,32.6,8.2,32.5,8.4z"/>
					<path fill="#FFFFFF" d="M41.8,8.3L41.8,8.3C41.8,8.3,41.8,8.3,41.8,8.3L41.8,8.3z"/>
					<path fill="#FFFFFF" d="M41.8,8.3L41.8,8.3C41.9,8.3,41.9,8.3,41.8,8.3z"/>
					<path fill="#FFFFFF" d="M42,8.2L42,8.2C41.9,8.3,41.9,8.3,42,8.2z"/>
					<path fill="#FFFFFF" d="M41,8.4l0,0.1C41,8.5,41,8.5,41,8.4z"/>
					<path fill="#FFFFFF" d="M40.8,8.5c0.1,0,0.1,0.3,0.2,0.2l0-0.1C40.9,8.8,40.9,8.3,40.8,8.5z"/>
					<path fill="#FFFFFF" d="M40.1,6.4l0.2,0.2c0-0.2,0-0.5,0.1-0.5C40.2,5.4,40.4,6.6,40.1,6.4z"/>
					<path fill="#FFFFFF" d="M39.6,5.8c0.1-0.1,0.1-0.3,0.1-0.5C39.6,5.5,39.6,5.6,39.6,5.8z"/>
					<path fill="#FFFFFF" d="M35.3,4.3l0.1-0.9C35.3,3.5,35.4,3.7,35.3,4.3z"/>
					<polygon fill="#FFFFFF" points="33.9,8.9 33.9,9.5 34,8.6 					"/>
					<polygon fill="#FFFFFF" points="34.2,2.1 34.3,1.9 34.1,2.2 					"/>
					<path fill="#FFFFFF" d="M26.6,1.5l-0.1,1.2C26.6,2.5,26.7,1.2,26.6,1.5z"/>
					<path fill="#FFFFFF" d="M23.3,2.9c0-0.5-0.1-0.9-0.2-0.3C23.2,2.6,23.2,3,23.3,2.9z"/>
					<polygon fill="#FFFFFF" points="13.5,2.2 13.6,1.9 13.5,2.2 					"/>
				</g>
			</g>
		</g>
	</g>
	<g>
		<g>
			<g>
				<g>
					<path fill="#FFFFFF" d="M0,23.9C0,24,0,24.1,0,23.9l0.1-0.1L0,23.9z"/>
					<path fill="#FFFFFF" d="M0.4,24.2c0.1-0.1,0.2-0.3,0.2-0.5c-0.1,0.2-0.1,0.2-0.2,0.4c-0.1,0-0.1-0.1-0.1-0.1c0,0-0.1,0-0.1,0.1
						c0.1,0.1,0.2,0.2,0.3,0C0.4,24.1,0.4,24.2,0.4,24.2z"/>
					<path fill="#FFFFFF" d="M6.4,26.6l0-0.1C6.3,26.6,6.3,26.6,6.4,26.6z"/>
					<path fill="#FFFFFF" d="M10.1,28.2c0,0-0.1,0.2-0.1,0.3C10.1,28.4,10.1,28.3,10.1,28.2z"/>
					<path fill="#FFFFFF" d="M10.6,29.8C10.6,29.7,10.6,29.7,10.6,29.8C10.6,29.8,10.6,29.9,10.6,29.8z"/>
					<path fill="#FFFFFF" d="M6.4,26.6L6.4,27C6.5,26.6,6.4,26.7,6.4,26.6z"/>
					<path fill="#FFFFFF" d="M1.4,23.5c0,0,0,0.1-0.1,0.1C1.3,23.5,1.4,23.5,1.4,23.5L1.4,23.5z"/>
					<path fill="#FFFFFF" d="M4.6,26.9L4.6,26.9c-0.1,0.1-0.1,0.2-0.1,0.3L4.6,26.9z"/>
					<path fill="#FFFFFF" d="M3.3,26.5c0,0,0.1-0.6,0.2-0.8C3.5,25.9,3.4,26,3.4,26C3.4,26.1,3.4,26.3,3.3,26.5z"/>
					<path fill="#FFFFFF" d="M1.5,24.8L1.5,24.8C1.4,24.8,1.5,24.8,1.5,24.8z"/>
					<path fill="#FFFFFF" d="M5.5,27.4c0,0.1,0,0.2,0,0.3C5.5,27.6,5.5,27.5,5.5,27.4z"/>
					<path fill="#FFFFFF" d="M42.1,26C42.1,26,42.1,26,42.1,26C42.1,26,42.1,26,42.1,26z"/>
					<polygon fill="#FFFFFF" points="43.7,26.8 43.6,26.8 43.6,26.9 					"/>
					<path fill="#FFFFFF" d="M11.6,31.5C11.6,31.5,11.6,31.5,11.6,31.5C11.6,31.6,11.6,31.6,11.6,31.5z"/>
					<path fill="#FFFFFF" d="M23.1,30.3c-0.1-0.8,0.3-1,0.1-1.8C23.2,28.7,22.9,29.8,23.1,30.3z"/>
					<path fill="#FFFFFF" d="M1.4,23.5C1.4,23.5,1.5,23.5,1.4,23.5C1.5,23.5,1.4,23.5,1.4,23.5z"/>
					<path fill="#FFFFFF" d="M23.2,28.4L23.2,28.4L23.2,28.4C23.2,28.4,23.2,28.4,23.2,28.4z"/>
					<path fill="#FFFFFF" d="M14.5,31c0-0.2,0-0.4,0-0.5C14.5,30.6,14.5,30.8,14.5,31z"/>
					<path fill="#FFFFFF" d="M12.6,29.2l0,0.2C12.6,29.3,12.6,29.3,12.6,29.2z"/>
					<path fill="#FFFFFF" d="M15.8,29.4C15.8,29.5,15.8,29.6,15.8,29.4C15.8,29.4,15.8,29.4,15.8,29.4
						C15.8,29.5,15.8,29.6,15.8,29.4z"/>
					<path fill="#FFFFFF" d="M16.9,29.4c0-0.1,0-0.1,0-0.2l0,0.1L16.9,29.4z"/>
					<path fill="#FFFFFF" d="M38.7,25.6c0,0.1,0,0.2,0.1,0.3C38.8,25.6,38.9,25.6,38.7,25.6z"/>
					<path fill="#FFFFFF" d="M1.4,23.6c0-0.1,0-0.1,0.1-0.1l0,0C1.4,23.6,1.4,23.6,1.4,23.6z"/>
					<path fill="#FFFFFF" d="M16.6,20.6l0.2,0.2C16.7,20.7,16.6,20.6,16.6,20.6z"/>
					<path fill="#FFFFFF" d="M30.8,24.4L30.8,24.4C30.8,24.3,30.8,24.3,30.8,24.4z"/>
					<path fill="#FFFFFF" d="M17.2,20.8c0,0.4,0,0.6,0,0.8c0-0.1,0-0.2,0-0.3L17.2,20.8z"/>
					<path fill="#FFFFFF" d="M38.4,25.9L38.4,25.9L38.4,25.9z"/>
					<path fill="#FFFFFF" d="M39.9,25.3c-0.2,0-0.1,0.3-0.1,0.6c-0.2,0.1-0.1-0.3-0.2-0.5c-0.1,0.1-0.2,0.4-0.3,0.4
						c0-0.1,0-0.1,0-0.2c-0.1,0.3-0.4,0-0.5,0.4c0,0,0-0.1,0-0.1c0,0.2,0,0.4,0,0.6c-0.1,0-0.1,0.3-0.2,0c0,0,0-0.1,0.1-0.2
						l-0.1,0.1c-0.1-0.4,0.1-0.1,0.1-0.4c-0.2,0.1-0.3,0.5-0.4,0.3c0-0.4,0.3-0.1,0.1-0.5l0.2,0.2c-0.2-0.7,0.1,0.1,0-0.6
						c-0.2-0.2-0.3,0.2-0.5,0c0,0.2,0,0.4,0,0.6c-0.3,0.4-0.3-1.2-0.5-0.6c-0.1,0.3-0.1,0.9-0.3,0.6l0.1-0.5
						c-0.2-0.1-0.1,0.8-0.4,0.4c0-0.2,0.2-0.2,0.1-0.2c-0.2-0.5-0.1,0.3-0.2,0.3l0-0.5c-0.2,0-0.5,0.4-0.8,0.4c0-0.2,0.1-0.3,0-0.5
						c-0.3,0.2-0.7-0.2-1.1-0.6l-0.1,0.5c0,0-0.1-0.2,0-0.3c-0.1-0.2,0,0.3-0.1,0.5c-0.1,0-0.1-0.3-0.1-0.5
						c-0.2,0.4-0.7,0.9-0.9,0.3l0-0.2c-0.2-0.3-0.2,1.1-0.4,0.6l0-0.1c-0.4-0.3-0.9,0.2-1.2-0.8c-0.1,0.9-0.4-0.5-0.4,0.8
						c-0.2-0.6-0.2-0.9-0.5-1.3c-0.1-0.1-0.1,0.8-0.3,0.9l0-0.7L31,25l-0.1-0.8l-0.1,0.2c0,0,0.1,0.3,0.1,0.5
						c-0.2,0.3-0.4-0.5-0.4-0.9l-0.4,0.5c0-0.3,0.1-0.4,0.1-0.5c-0.2,0.7,0-0.8-0.2-0.1c0,0.2,0,0.4,0,0.6c-0.1-0.5-0.3-0.5-0.4-0.3
						l0-0.5c-0.3-0.2-0.6,0.1-0.9,0.1c0.1,0.3,0.1,1.2,0,1.3l0-0.8c-0.1,0.5,0.1,0.3-0.1,0.9c-0.1-0.1-0.1-0.9,0-1.2L28.5,24
						c0-0.2,0.1-0.4,0.2-0.7c-0.1,0.5-0.2-0.9-0.2,0v-0.2c-1-0.1-0.6,0.2-0.8,0.2c0,0.7-0.2,0.6-0.3,1.2c-0.2-0.3-0.4-0.9-0.6-0.9
						c-0.2,0.4-0.1,0.6-0.2,1.1c0-0.7-0.2-0.7-0.1-1.2c-0.3,0.1-0.3,0.1-0.7,0.6c0,0.3,0.1,0.4,0,0.7c-0.1,0.1-0.1-0.3-0.1-0.7
						l0-0.1c-0.4,1.1-0.8-2.3-1.1-0.8l0-0.1L24.2,24c-0.1-0.2,0.1-0.6,0-1c-0.4,1.2-0.5-0.3-0.8,0.5c-0.1-2.4-0.8,0-1-1.5l0,0.6
						c-0.1,0.5-0.1-0.3-0.1-0.5c0,0.4,0.1,0.5,0,0.8c-0.7,0.6-1.3-1.1-1.9-1.8c-0.2-0.2-0.3,3.1-0.5,1.6l0.2-1.1
						c-0.6,1.3-1-0.3-1.5,0.7c0-0.3,0.1-0.6,0.1-0.6c0-0.9-0.4-0.2-0.4,0.6c-0.1-0.1,0-0.7,0-1c-0.1-0.6-0.3,1.1-0.3,0.2
						c0-0.1,0.1-0.3,0.1-0.3c-0.1,0.4-0.3-0.2-0.3,0.9c-0.1-0.5-0.4,0.4-0.5-0.3c-0.2,1.2-0.2-0.7-0.4,1c0.2-1.8-0.2-1.5-0.4-0.7
						c0.1-0.5,0-0.6,0.1-1.3c-0.1,0-0.3,0.3-0.3,1.2c0-2.2-0.6,1.7-0.5-1.2c-0.5,0.9-0.9,1.5-1.3,1.9c0.2-1.9,0.4-0.1,0.6-2.1
						c-0.4,0.7-0.7,2.3-1,1.8c-0.1-0.3,0.1-0.8,0.2-1.1c-0.4,0.7-0.6-0.2-1,0.8c0-0.2,0.1-0.4,0.1-0.5c-0.1,0.1-0.1-0.3-0.2,0.6
						l0.1-0.2c0,1.2-0.5,2.6-0.6,3.2c0.3-2.4-0.2-0.6,0.2-3.7c-0.1,0.2-0.1,0.6-0.2,1.1c0-0.2,0-0.5,0.1-1.1
						c-0.3,0.5-0.3,1.4-0.5,1.3c0-0.4,0.1-0.6,0.2-1c-0.2,0.8-0.4,1.6-0.5,1.2c0-0.2,0.1-0.6,0.1-0.6c-0.3,0.1-0.7,2.1-0.9,1.3
						c0.3-1.7,0-0.6,0.1-2.1l-0.2,0.4l0,0.7c-0.1,0-0.4,1-0.4,0.6l0.2-0.6l-0.3,0.3l0.1,0.6c-0.2,0.7-0.1,1.8-0.2,1.4
						c0.1-0.1,0,0,0-0.9v0c0,0.5-0.4,0.9-0.4,0.6c0-0.5,0.1-1.6,0.2-1.9C10,23.8,9.8,23,9.6,24.2c0.1-0.3,0.1-1,0.1-1.2l-0.2,1
						c0-0.3,0-0.5,0.1-1c-0.2-0.2-0.1,1.8-0.3,1c0-0.1,0-0.2,0.1-0.4c-0.2-0.4-0.5,0.6-0.7,0.1c0.1-1.3,0.2-0.3,0.3-1.5
						c-0.3,0.3-0.8,1.6-1.1,1.3l0,0.1c-0.3,1.8-0.1-0.9-0.4,0c0.1-0.1,0.2-1,0.1-0.8c-0.2-0.3-0.5,0.5-0.9,1l0.1-0.4
						C6.9,23,6.7,23.2,6.5,23c-0.1,0.4-0.2,0.3-0.2,1c0-1.2-0.3-0.8-0.5-0.5c-0.2,0.4-0.5,0.7-0.5-0.2c0,0,0.1-0.3,0.1-0.3l-0.4,0.4
						c-0.1,0.6,0,0.4,0,0.8c-0.1,0.4-0.2,0.6-0.3,0.6c0.2-0.4,0.1-1,0.1-1.3c0,0.2-0.1,0.4-0.1,0.6c0-1.1-0.2,1.2-0.3,0.5l0.1-0.3
						c-0.1,0.2-0.2,0.5-0.3,0.4c0.1-0.6,0.1-0.3,0.2-0.8C4.3,23.9,4,25,4,24.4c0.1-0.2,0.2-0.2,0.2-0.3c0-0.7-0.1-0.5-0.1-0.7l0,0
						L4,23.1l0,0.2c-0.4,1.5-0.4,0.3-0.7,1.2c0.3-0.9,0.1-0.5,0.2-1.1c0-0.2-0.1-0.3,0-0.5c-0.2,0.5-0.1-0.3-0.4,0.4
						c0-0.2-0.1,0,0-0.5c-0.2,0.2,0,0.3-0.1,0.5c-0.1,0.3-0.2,0.1-0.3,0c-0.1-0.1-0.2-0.2-0.4,0.2c-0.3,0.3-0.4,0.8-0.7,1
						c0-0.2,0.1-0.5,0.1-0.5c-0.1-0.2-0.2-0.1-0.3,0c0-0.1,0-0.2,0-0.3c-0.1,0-0.1,0.4-0.2,0.2c0-0.1,0.1-0.3,0.2-0.4
						C1.2,23.7,1,23.9,0.9,24c0-0.2,0.1-0.2,0.2-0.4c-0.1,0.1-0.4,0.2-0.4,0.4l0.1,0.1c0,0,0-0.2,0-0.2c0.1-0.2,0.1,0.1,0.1,0.2
						l-0.1,0.1c0,0.5,0.3-0.1,0.5-0.1l-0.1,0.5l0.2-0.4c0,0.1,0,0.4-0.1,0.5c0.1,0.3,0.1-0.2,0.2,0.1c0,0,0,0.1,0,0.1l0.1-0.1
						c0,0.1,0,0.4-0.1,0.3c0.1,0.4,0.4-0.3,0.4,0.1l0,0c0.3-0.1,0.1-0.4,0.4-1l0,1.3l0.1-0.5c0,0,0.1,0.1,0,0.3
						c0.2-0.3,0-0.2,0.1-0.6c0.1,0.5,0.4-0.2,0.3,0.7c0.1-0.4-0.1-0.4,0.1-0.6c-0.1,1,0.2-0.1,0.3,0.4C3.1,25.7,3,25.3,3,25.9
						C3.2,25,3.3,26.2,3.4,26c0.1-0.8,0.3-0.3,0.5-0.5c-0.1,0.3,0.3,0.6,0.4,1l0,0.2c0.2-0.9,0.3-0.7,0.5-0.9
						c-0.1,0.6-0.1,0.8-0.2,1l0.1,0c0.1-0.3,0.1-0.4,0.2-0.5L4.7,27c0.2,0,0.4-0.8,0.6-0.2c0.1-0.7,0.1-2,0.4-2.5
						c0,0.4-0.1,1.1-0.2,1.2c0,0,0.1-0.3,0.1-0.1l-0.2,0.6c0.1,0.3,0.1-0.5,0.2-0.5c-0.1,0.6,0,0.4-0.1,0.9c0,0,0-0.3-0.1,0
						c0.1,0.1,0.1,0.5,0.1,0.9c0-0.3,0.1-0.8,0.2-0.8c0.2,0,0,0.7,0,1.1c0.1-0.4,0.1,0.1,0.3-0.8c0,0,0,0.4,0,0.7
						c0.1-0.4,0.4,0,0.4-1l0-0.1c0,0,0,0,0,0l0,0l0,0c0.4-0.9,0.5,0.7,0.8,0.3l0,0.3c0.2-0.3,0.4-0.1,0.6-0.8c0,0,0,0.6,0,1
						c0.2-0.2,0.2-0.6,0.3,0c-0.2,0.6,0,0.5-0.2,0.4c0.1,0.3,0.1,0.9,0.4,0c-0.2,0.9,0,1.2,0.1,0.9l0-0.7c0.1-0.1,0.2,0,0.2,0.1
						l-0.2,1.2c0.1,1.6,0.9-2.4,0.8,0.2c0.2-0.9-0.1-0.7,0.1-1.7c0.1,0.2,0.1,2.1,0.1,2.1c0.1,0.8,0.4-1.8,0.6-1.3
						c0-0.5,0.1-1.7,0.3-2.1c0.1,0.2,0,2-0.2,2.3c0,0,0-0.1,0-0.3c-0.1,0.2-0.2,0.3-0.2,0.9l0.1-0.5c0,0.5,0.2,0.5,0.1,1.2
						c0.2-0.4,0.1-0.8,0.1-1c0.1,0.7,0.3,0.1,0.4,0.6c0-0.3,0-0.8,0.1-0.8c0.2,0.6,0.2-0.9,0.4-1.1c0,0.7-0.2,1.7,0,1.2
						c0.1,0.5-0.1,1.3-0.2,1.7c0.3-0.9,0.3,0.7,0.4,0.9l-0.1,0.4c0.1-0.2,0.1-0.2,0.2-0.2l0-1c0,0.2,0.1,0.2,0,0.6
						c0.1-0.6,0.1-1.6,0.3-2.5c0,0.5,0.3-0.5,0.2,0.8c-0.2-0.5-0.1,1.3-0.3,1.5c0.1-0.1,0.1-0.1,0.1,0c0,0.1,0,0.3-0.1,0.3
						c0.1,1.2,0.3-1.4,0.5-1.4c-0.1,0.7-0.1,1.4,0,1.2c-0.1,0,0.1-1.2,0.2-1.8c0.1,0.6,0.2-0.4,0.3-0.3L12.5,29
						c0.1-0.7,0.2-0.6,0.3-0.8c0,0.6-0.1,0.4-0.1,0.6c0.2-1.3,0.1,1.4,0.4,0.5c0,0.5-0.1,1.4-0.1,1.7c0.3-0.9,0.1,1,0.4,0.2
						c0-1,0-0.8,0.2-1.7l-0.4,0.7l0.3-1.4c-0.1,0-0.3,0.6-0.3,0.4c0.2-0.8,0.1-0.6,0.2-1.4c0,1.5,0.3-0.8,0.4,0.2l-0.2,2.4
						c0.1,1.1,0.5-1.2,0.8-0.6l-0.1-0.4c0.1-1,0.2-0.1,0.3-0.5c-0.1,0.8-0.1,1.1-0.1,1.6c0-0.6,0.2,0.1,0.4-1.5l0,1.1
						c0.2,0.4,0.5-2.3,0.7-2c-0.1,0.9-0.1,1.4-0.3,2c0.1,0,0.1,0.1,0.2-0.4c0,0.5,0.3-1.1,0.3-0.3c0.1-0.3,0.1-1.2,0.2-1.1
						c0,0.2,0,0.4,0,0.4c0-0.4,0.2-0.5,0.2-1.4c0,2.4,0.7-0.2,0.7,1.9c0.2-0.3,0.4-0.5,0.6-0.6c0,0.2,0,0.4-0.1,0.3
						c0.2,0.7,0.3-2.1,0.5-1.3c0,1.2-0.2,0.6-0.1,1.1c-0.2,2.4,0.3-0.3,0.4,1l0,0.1c0.1,0.8,0.4-0.9,0.6-0.7c0,0,0,0.2,0,0.3
						c0.2-1.2,0.5-1.6,0.7-1.9c-0.1,0.9-0.1,0.5-0.1,1.4c0.1-0.1,0.1-1.4,0.3-1.7c0,0.5,0.1,0.9,0.1,1.9l-0.2,0.1
						c0,1.2,0.2-0.1,0.3,0.2l0,0.5c0.3-0.2,0.4-1.5,0.6-1.4l0-0.4c0.2-1.3,0.1,0.7,0.3-0.2l0,1.3c0.1-0.3,0.4-1.3,0.6-1.5
						c-0.2,0.9-0.4,1.4-0.6,2c0.1,0,0.3-0.1,0.4-0.7c0,0.1-0.1,0.4-0.1,0.2c0.2-1,0.4-1.5,0.5-1.5c-0.2,2.5,0.5,0.6,0.5,2.5
						c0.4-0.9,0.6,0.3,1.1,0.2c0-1.8,0.1-0.1,0.2-1.9c0.1-0.1,0.1-0.1,0.1,0l0.2,1.1c0,0.5-0.1,0.4-0.1,0.8c0.2,0.1,0,0.8,0.2,1.3
						c0-0.7,0.1-0.9,0.2-0.7l-0.1-0.8c0.3-1,0.2,1.5,0.5,0.5l-0.1,0.6c0.2-0.3,0.5,0,0.7-1.5c0,0.2,0,0.7,0,0.8
						c0.3,0.2,0.8-1.6,1.1-0.7l0,0.4c0.1-0.1,0.1-0.8,0.2-0.4c0,0.2,0,0.4,0,0.4c0-0.1,0.2-0.7,0.3-0.5L26,30.3
						c0.3,0.5,0.6-1.2,0.8-1.4c0,1.2,0.2,1.5,0.3,1.7l0,0.2c0.4,0.1,0.7-1,1.1-1.5c0.2,1.2,0.7,0.4,1.1,1c-0.1-0.2,0-0.8,0.1-0.9
						c0.1,0.2,0.2-0.7,0.2,0.2l0,0c0,0.9,0.2,0.7,0.4,0.7l0-1.2c0.3,1.7,0.9-0.7,1.1,0.8c0.1-0.3,0.2-0.3,0.3-0.6l0,0.6
						c0.2,0.1,0.4,0.2,0.7,0L32,30.1c0.2,0,0.2-1.7,0.4-1.8l0,0.9c0.3,0,0.6,0.6,0.9-0.2c0,0.1,0,0.4-0.1,0.4c0.1,0,0.5,0.4,0.5-0.6
						c0,0.7,0.3,0,0.5-0.3l0,0.5c0.1-0.7,0.1-0.8,0.3-1c0,0.1,0,0.4,0,0.3c0.1,0.2,0.1-0.5,0.3-0.2l-0.1,0.3c0.1,0,0.1-0.1,0.2-0.5
						c0.1-0.2,0.3,0.1,0.3,0.5c0-0.3,0.1-0.6,0.2-0.5c0,0.2,0,0.3,0,0.3c0.3,0.3,0.4-0.6,0.5-0.1c0,0.1,0,0.2,0,0.3
						c-0.2,0-0.4,0-0.3,0c0,0.4,0.2,0.5,0,1.1c0.1-0.3,0.3-1,0.5-0.9c0,0,0,0.1,0,0.1l0,0c0,0,0.1,0,0.1-0.1
						c0.1,0.1,0.1,0.1,0.1,0.1c0,0.3,0.2,0.1,0.3,0.1c0-0.4,0.1-0.4,0-0.7c0,0,0,0.1-0.1,0.1c0,0,0,0,0,0l0,0c-0.1,0-0.1,0-0.2,0.1
						c0.1-0.2,0.1-0.4,0.2-0.2c0-0.3,0.1-0.6,0.1-0.7c0.1,0.6,0.3,0.9,0.4,1.2c0.2-0.3,0.6-0.2,0.7-1c0.1-0.1,0.1,0.2,0.1,0.3
						c0,0.1-0.1,0.1-0.1,0.2c0.1-0.2,0.4-0.1,0.4-0.6c0.2,0.2-0.1,0.4,0.1,0.3l0,0.1c0.2,0.3,0.4,0,0.6-0.3c0.2-0.3,0.4-0.5,0.7-0.1
						c0,0-0.1-0.1-0.1-0.1c0.3,0.1,0.6,0,0.9-0.1c0.3-0.1,0.6-0.1,0.9,0c0.2,0.1,0.2-0.1,0.3-0.3l0,0.2l0.2-0.3
						c0.2-0.2,0.4,0.4,0.7,0.1l0-0.1c0.1,0,0.3-0.1,0.3,0c0,0,0-0.1,0.1-0.1l0,0.1l0.3-0.2c0.2,0,0,0.3,0.3,0.3
						c0.1-0.1,0.3-0.3,0.3-0.3c0,0-0.1,0-0.1-0.1l0.1,0c0-0.2,0.1-0.4-0.2-0.5l-0.2,0.1l-0.1-0.1l0.2,0c-0.1-0.1-0.1,0-0.2,0
						c0-0.1,0-0.1-0.1-0.1l-0.2,0.2c0-0.1,0.1-0.2,0-0.2c-0.1,0.1,0.1,0.2,0,0.3c-0.1-0.1-0.1-0.2-0.2-0.1c0-0.1,0-0.1,0-0.1
						c-0.1,0.1-0.2,0-0.3,0.1c-0.1-0.2-0.3,0-0.3-0.3c0,0.1-0.2,0.2-0.2,0.2c0.1-0.3-0.3-0.1-0.3-0.5c-0.1,0.3-0.4,0.1-0.6,0.3
						c0,0,0-0.1,0-0.1c-0.1,0-0.1-0.2-0.2-0.3c0,0.3-0.2,0.4-0.3,0.6c-0.1-0.4,0.1-0.4,0-0.7c0,0.3-0.2,0.2-0.2,0.5
						c-0.1-0.2-0.1-0.1-0.2-0.4c0,0.5-0.1,0.1-0.2,0.3c-0.2-0.3-0.1-0.5-0.2-0.3C39.8,25.5,39.9,25.3,39.9,25.3z M36,25.8L36,25.8
						C36.1,25.8,36.1,25.8,36,25.8C36.1,25.8,36.1,25.8,36,25.8z M35.7,25.8c0,0,0.1,0,0.1,0c0,0.2,0,0.3,0,0.3
						C35.8,26,35.7,25.9,35.7,25.8z M36.4,28.8C36.4,28.9,36.4,28.8,36.4,28.8c-0.1-0.1,0-0.1,0-0.2l0-0.1
						C36.4,28.7,36.4,28.7,36.4,28.8z"/>
					<path fill="#FFFFFF" d="M36.5,28.2C36.5,28.2,36.5,28.2,36.5,28.2c0-0.1,0-0.1,0-0.1L36.5,28.2L36.5,28.2z"/>
					<path fill="#FFFFFF" d="M6.3,26.5L6.3,26.5c0,0,0-0.1,0-0.1C6.3,26.4,6.3,26.4,6.3,26.5z"/>
					<polygon fill="#FFFFFF" points="31.2,24.1 31.2,24.3 31.2,24.2 					"/>
					<path fill="#FFFFFF" d="M4.9,23.5c0-0.1,0-0.1,0-0.2C4.9,23.4,4.9,23.4,4.9,23.5z"/>
					<path fill="#FFFFFF" d="M4.1,23.4L4,23.2C4.1,23.3,4.1,23.4,4.1,23.4z"/>
					<path fill="#FFFFFF" d="M3.5,23.2c0,0.1,0,0.2,0,0.2l0,0L3.5,23.2z"/>
					<path fill="#FFFFFF" d="M13.3,21.4C13.3,21.4,13.4,21.4,13.3,21.4C13.4,21.2,13.4,21.3,13.3,21.4z"/>
					<path fill="#FFFFFF" d="M10.2,24c0.1-0.2,0.1-0.4,0.2-0.5C10.3,23.4,10.3,23.4,10.2,24z"/>
					<path fill="#FFFFFF" d="M16.6,20.6C16.6,20.6,16.6,20.6,16.6,20.6C16.6,20.6,16.6,20.6,16.6,20.6L16.6,20.6z"/>
					<path fill="#FFFFFF" d="M10.5,23.5c0-0.2-0.1-0.2-0.1,0C10.4,23.5,10.4,23.6,10.5,23.5z"/>
					<path fill="#FFFFFF" d="M0.8,23.6L0.8,23.6C0.8,23.6,0.8,23.6,0.8,23.6L0.8,23.6z"/>
					<path fill="#FFFFFF" d="M0.8,23.6L0.8,23.6C0.8,23.7,0.8,23.7,0.8,23.6z"/>
					<path fill="#FFFFFF" d="M0.7,23.7L0.7,23.7C0.7,23.7,0.7,23.7,0.7,23.7z"/>
					<path fill="#FFFFFF" d="M1.7,23.5l0-0.1C1.7,23.4,1.7,23.4,1.7,23.5z"/>
					<path fill="#FFFFFF" d="M1.9,23.4c-0.1,0-0.1-0.3-0.2-0.1l0,0.1C1.8,23.2,1.8,23.7,1.9,23.4z"/>
					<path fill="#FFFFFF" d="M2.6,25.5l-0.2-0.2c0,0.2,0,0.5-0.1,0.5C2.5,26.5,2.4,25.4,2.6,25.5z"/>
					<path fill="#FFFFFF" d="M3.2,26.1c-0.1,0.1,0,0.3-0.1,0.5C3.2,26.4,3.2,26.3,3.2,26.1z"/>
					<path fill="#FFFFFF" d="M7.6,27.6l-0.1,0.9C7.6,28.4,7.6,28.1,7.6,27.6z"/>
					<polygon fill="#FFFFFF" points="9.1,23 9.1,22.4 8.9,23.3 					"/>
					<polygon fill="#FFFFFF" points="8.8,29.8 8.7,29.9 8.9,29.6 					"/>
					<path fill="#FFFFFF" d="M16.6,30.3l0.1-1.2C16.6,29.3,16.5,30.7,16.6,30.3z"/>
					<path fill="#FFFFFF" d="M20.1,29c0,0.5,0.1,0.9,0.2,0.3C20.2,29.3,20.2,28.8,20.1,29z"/>
					<polygon fill="#FFFFFF" points="30.2,29.8 30.1,30.1 30.2,29.9 					"/>
				</g>
			</g>
		</g>
	</g>
	<g>
		<g>
			<g>
				<g>
					<path fill="#FFFFFF" d="M42,43.8C42,43.8,42,43.7,42,43.8L42,43.8L42,43.8z"/>
					<path fill="#FFFFFF" d="M41.6,43.6c-0.1,0.1-0.1,0.4-0.1,0.6c0-0.3,0.1-0.2,0.1-0.4c0.1,0,0.1,0,0.1,0.1c0-0.1,0.1,0,0.1-0.1
						c-0.1-0.1-0.2-0.1-0.3,0C41.6,43.8,41.6,43.7,41.6,43.6z"/>
					<path fill="#FFFFFF" d="M35.8,42.7l0,0.1C35.8,42.7,35.8,42.7,35.8,42.7z"/>
					<path fill="#FFFFFF" d="M32.2,41.8c0,0,0-0.2,0-0.3C32.2,41.6,32.2,41.7,32.2,41.8z"/>
					<path fill="#FFFFFF" d="M31.5,40.4C31.5,40.4,31.5,40.4,31.5,40.4C31.5,40.3,31.5,40.3,31.5,40.4z"/>
					<path fill="#FFFFFF" d="M35.8,42.7l-0.1-0.3C35.7,42.7,35.7,42.6,35.8,42.7z"/>
					<path fill="#FFFFFF" d="M40.9,44.7c0,0,0-0.1,0-0.1C40.9,44.6,40.9,44.6,40.9,44.7L40.9,44.7z"/>
					<path fill="#FFFFFF" d="M37.3,42L37.3,42c0-0.1,0-0.2,0-0.3L37.3,42z"/>
					<path fill="#FFFFFF" d="M38.5,42.2c0,0,0,0.6,0,0.8c0-0.3,0-0.4,0-0.4C38.5,42.5,38.5,42.4,38.5,42.2z"/>
					<path fill="#FFFFFF" d="M40.5,43.3L40.5,43.3C40.5,43.3,40.5,43.3,40.5,43.3z"/>
					<path fill="#FFFFFF" d="M36.4,41.7c0-0.1,0-0.2,0-0.3C36.4,41.5,36.4,41.6,36.4,41.7z"/>
					<path fill="#FFFFFF" d="M3.4,45.8C3.4,45.8,3.4,45.8,3.4,45.8C3.4,45.8,3.4,45.8,3.4,45.8z"/>
					<polygon fill="#FFFFFF" points="1.7,44.9 1.7,44.9 1.7,44.8 					"/>
					<path fill="#FFFFFF" d="M30.3,38.8C30.3,38.8,30.3,38.8,30.3,38.8C30.3,38.7,30.3,38.7,30.3,38.8z"/>
					<path fill="#FFFFFF" d="M20.4,41.4c0.1,0.8-0.2,1,0,1.8C20.4,42.9,20.5,41.9,20.4,41.4z"/>
					<path fill="#FFFFFF" d="M40.9,44.6C40.8,44.6,40.8,44.7,40.9,44.6C40.8,44.7,40.8,44.6,40.9,44.6z"/>
					<path fill="#FFFFFF" d="M20.4,43.2L20.4,43.2L20.4,43.2C20.4,43.3,20.4,43.2,20.4,43.2z"/>
					<path fill="#FFFFFF" d="M27.8,39.7c0,0.2,0,0.4,0.1,0.5C27.9,40.1,27.9,39.9,27.8,39.7z"/>
					<path fill="#FFFFFF" d="M29.8,41.2L29.7,41C29.8,41.1,29.8,41.2,29.8,41.2z"/>
					<path fill="#FFFFFF" d="M26.9,41.5C26.9,41.4,26.9,41.2,26.9,41.5C26.9,41.4,26.9,41.5,26.9,41.5
						C26.9,41.4,26.9,41.3,26.9,41.5z"/>
					<path fill="#FFFFFF" d="M25.9,41.7c0,0.1,0,0.1,0,0.2l0-0.1L25.9,41.7z"/>
					<path fill="#FFFFFF" d="M6.2,46.4c0-0.1,0-0.2,0-0.3C6.1,46.3,6,46.4,6.2,46.4z"/>
					<path fill="#FFFFFF" d="M40.9,44.5c0,0.1,0,0.1,0,0.2l0,0C40.9,44.5,40.9,44.5,40.9,44.5z"/>
					<path fill="#FFFFFF" d="M27.3,50.3l-0.2-0.2C27.2,50.2,27.3,50.3,27.3,50.3z"/>
					<path fill="#FFFFFF" d="M13.6,47.6L13.6,47.6C13.5,47.7,13.6,47.7,13.6,47.6z"/>
					<path fill="#FFFFFF" d="M26.7,50.2c0-0.4-0.1-0.6-0.1-0.8c0,0.1,0,0.2,0,0.3L26.7,50.2z"/>
					<path fill="#FFFFFF" d="M6.4,46.1L6.4,46.1L6.4,46.1z"/>
					<path fill="#FFFFFF" d="M5,46.6c0.2,0.1,0.1-0.3,0.1-0.5c0.2-0.1,0.1,0.3,0.1,0.5c0.1-0.1,0.2-0.4,0.3-0.4c0,0.1,0,0.1,0,0.2
						C5.7,46,5.9,46.4,6.1,46c0,0,0,0.1,0,0.1c0-0.2,0-0.4,0-0.6c0.1,0,0.1-0.3,0.2,0c0,0,0,0.1-0.1,0.2l0.1-0.1
						C6.3,46,6.2,45.7,6.2,46c0.1-0.1,0.3-0.4,0.4-0.3c0,0.4-0.3,0.1-0.1,0.5L6.3,46c0.1,0.7-0.1-0.1,0,0.6c0.2,0.2,0.3-0.2,0.5,0
						c0.1-0.2,0-0.4,0-0.6c0.3-0.4,0.2,1.2,0.5,0.6c0.1-0.3,0.1-0.9,0.3-0.5l-0.1,0.5c0.2,0.1,0.1-0.8,0.4-0.4
						c0,0.2-0.2,0.2-0.1,0.2c0.1,0.5,0.1-0.3,0.2-0.3l0,0.5c0.2,0,0.5-0.4,0.7-0.4c0,0.2-0.1,0.3,0,0.5c0.3-0.2,0.7,0.2,1,0.6
						L9.8,47c0,0,0,0.2,0,0.3c0.1,0.2,0-0.3,0.1-0.5c0.1,0,0.1,0.3,0,0.5c0.2-0.4,0.6-0.9,0.8-0.3l0,0.2c0.2,0.3,0.2-1.1,0.4-0.6
						l0,0.1c0.4,0.3,0.8-0.2,1.1,0.7c0.1-0.9,0.4,0.4,0.4-0.8c0.2,0.6,0.2,0.9,0.5,1.3c0.1,0.1,0.1-0.8,0.2-0.9l0,0.7l0.1-0.7
						l0.1,0.8l0.1-0.2c0,0-0.1-0.3-0.1-0.5c0.1-0.3,0.4,0.5,0.4,0.9l0.3-0.5c0,0.3-0.1,0.4-0.1,0.6c0.2-0.7,0,0.8,0.2,0.1
						c0-0.2,0-0.4,0-0.6c0.1,0.4,0.3,0.5,0.4,0.3l0,0.5c0.3,0.2,0.5-0.2,0.8-0.1c-0.1-0.3-0.1-1.2,0-1.3l0,0.8c0-0.5-0.1-0.3,0-0.9
						c0.1,0.1,0.1,0.9,0,1.2l0.1-0.3c0,0.2,0,0.4,0,0.7c0-0.5,0.2,0.9,0.3,0l0,0.2c0.3,0.1,0.4-0.2,0.7-0.2c0-0.7,0.1-0.6,0.1-1.2
						c0.2,0.3,0.4,0.9,0.6,0.8c0.1-0.4,0-0.6,0.1-1.1c0,0.7,0.2,0.7,0.1,1.2c0.3-0.1,0.3-0.1,0.6-0.7c0-0.3-0.1-0.4-0.1-0.7
						c0.1-0.1,0.1,0.3,0.1,0.7l0,0.1c0.3-1.1,0.9,2.2,1.1,0.7l0,0.1l0.3-0.8c0.1,0.1-0.1,0.6,0,1c0.3-1.3,0.5,0.2,0.8-0.6
						c0.3,2.3,0.7-0.1,1,1.4l0-0.6c0.1-0.5,0.1,0.3,0.2,0.5c0-0.4-0.1-0.5-0.1-0.8c0.6-0.6,1.3,0.9,1.9,1.6c0.2,0.2,0-3.1,0.4-1.6
						l0,1.1c0.4-1.3,0.9,0.2,1.4-0.9c0,0.3,0,0.6,0,0.6c0.1,0.9,0.4,0.1,0.3-0.6c0.1,0.1,0,0.7,0.1,1c0.1,0.5,0.2-1.1,0.3-0.2
						c0,0.1,0,0.3,0,0.4c0-0.4,0.3,0.2,0.2-0.9c0.2,0.5,0.3-0.4,0.5,0.2c0-1.2,0.3,0.6,0.3-1.1c0.1,1.8,0.4,1.5,0.4,0.6
						c0,0.5,0.1,0.6,0.1,1.3c0.1,0,0.2-0.3,0.1-1.3c0.3,2.2,0.4-1.7,0.6,1.1c0.3-1,0.6-1.6,0.9-2.1c0.1,1.9-0.3,0.2-0.2,2.1
						c0.3-0.8,0.4-2.4,0.7-1.9c0.1,0.3,0,0.8,0,1.1c0.3-0.8,0.6,0.1,0.8-0.9c0,0.2,0,0.4,0,0.5c0.1-0.1,0.1,0.3,0.1-0.6l0,0.2
						c-0.2-1.2,0.1-2.6,0-3.3c0.1,2.4,0.3,0.6,0.3,3.7c0-0.2,0-0.6,0-1.1c0.1,0.2,0.1,0.5,0.1,1.1c0.2-0.5,0-1.4,0.2-1.4
						c0,0.4,0,0.6,0,1.1c0-0.8,0.1-1.6,0.2-1.3c0,0.2,0,0.6,0,0.6c0.2-0.2,0.3-2.2,0.6-1.4c0,1.7,0.1,0.6,0.2,2l0.1-0.5l-0.1-0.7
						c0.1,0,0.2-1.1,0.3-0.6l-0.1,0.6l0.2-0.3l-0.2-0.5c0.1-0.8-0.3-1.9-0.1-1.5c0,0.2,0.1,0,0.1,0.9v0c0-0.5,0.2-1,0.4-0.6
						c0.1,0.5,0.2,1.6,0.2,1.9c0-1.2,0.3-0.4,0.3-1.7c0,0.3,0.1,1,0.1,1.2l0-1c0.1,0.3,0.1,0.4,0.1,1c0.2,0.1-0.2-1.8,0.1-1
						c0,0.1,0,0.2,0,0.4c0.2,0.4,0.4-0.7,0.6-0.2c0.2,1.3-0.1,0.4,0,1.5c0.3-0.3,0.5-1.7,0.8-1.5l-0.1-0.1c-0.1-1.8,0.3,0.9,0.3,0
						c0,0.1,0,1,0,0.8c0.2,0.2,0.3-0.5,0.6-1.1l0,0.4c0.1,0.4,0.3,0.1,0.4,0.3c0-0.4,0.1-0.4,0-1c0.3,1.1,0.4,0.7,0.6,0.4
						c0.1-0.4,0.3-0.8,0.5,0c0,0-0.1,0.4,0,0.3l0.2-0.4c-0.1-0.6-0.1-0.4-0.2-0.8c0-0.4,0.1-0.7,0.1-0.7c-0.1,0.4,0.1,1,0.2,1.3
						c0-0.2,0-0.4,0-0.6c0.2,1-0.1-1.2,0.2-0.5l0,0.3c0.1-0.2,0.1-0.6,0.2-0.5c0.1,0.6-0.1,0.3,0,0.9c0.1-0.1,0.1-1.3,0.3-0.6
						c0,0.2-0.1,0.2-0.1,0.4c0.2,0.7,0.2,0.5,0.3,0.6l0,0l0.2,0.3l-0.1-0.2c0-1.6,0.3-0.4,0.4-1.4c-0.1,0.9,0,0.5,0.1,1.1
						c0.1,0.2,0.2,0.3,0.1,0.5c0-0.5,0.2,0.3,0.2-0.4c0,0.2,0.1,0,0.1,0.4c0.1-0.2-0.1-0.3-0.1-0.5c0.1-0.3,0.2-0.2,0.3-0.1
						c0.1,0.1,0.3,0.1,0.3-0.3c0.2-0.4,0.2-0.9,0.4-1.1c0.1,0.2,0,0.5,0,0.5c0.1,0.2,0.2,0.1,0.3-0.1c0,0.1,0,0.2,0.1,0.3
						c0.1-0.1,0-0.4,0.1-0.3c0,0.1,0,0.3,0,0.5c0.1-0.2,0.2-0.4,0.3-0.5c0,0.1,0,0.3-0.1,0.4c0.1-0.1,0.3-0.3,0.3-0.5l-0.1-0.1
						c0,0,0,0.2,0,0.2c-0.1,0.2-0.1,0-0.2-0.1l0.1-0.1c-0.1-0.5-0.3,0.1-0.4,0.2l0-0.5L40.7,44c0-0.1-0.1-0.4,0-0.5
						c-0.1-0.3-0.1,0.2-0.2-0.1c0,0,0-0.1,0-0.1l-0.1,0.2c0-0.1-0.1-0.4,0-0.3c-0.2-0.4-0.3,0.4-0.4,0l0,0c-0.2,0.2,0,0.4-0.1,1
						l-0.2-1.2l0,0.5c0,0-0.1-0.1-0.1-0.3c-0.1,0.4,0,0.2,0,0.6c-0.2-0.5-0.3,0.3-0.4-0.7c0,0.4,0.2,0.3,0,0.7
						c-0.1-1-0.1,0.2-0.3-0.3c0-0.6,0.1-0.2,0-0.7c0,0.9-0.3-0.2-0.3-0.1c0.1,0.8-0.2,0.3-0.3,0.6c0-0.3-0.4-0.5-0.5-0.9l0-0.2
						c0,0.9-0.1,0.7-0.2,0.9c0-0.6,0-0.8,0-1l-0.1,0c0,0.3,0,0.5-0.1,0.6l0-0.7c-0.1,0-0.2,0.8-0.5,0.3c0,0.7,0.3,2,0.2,2.5
						c0-0.4-0.1-1.1-0.1-1.2c0,0.1,0,0.3-0.1,0.2l0-0.7c-0.1-0.3,0,0.6-0.1,0.5c0-0.6-0.1-0.4-0.1-0.9c0-0.1,0.1,0.2,0.1,0
						c-0.1-0.1-0.2-0.5-0.3-0.9c0,0.3,0.1,0.8,0,0.9c-0.1,0-0.1-0.7-0.2-1c0,0.4-0.1,0-0.1,0.9c0,0-0.1-0.4-0.1-0.7
						c0,0.4-0.3,0.1-0.2,1.1l0,0.1c0,0,0,0,0,0l0,0l0,0c-0.2,0.9-0.6-0.6-0.8-0.2l0-0.3c-0.1,0.4-0.3,0.2-0.4,0.9c0,0-0.1-0.6-0.2-1
						c-0.1,0.3-0.1,0.6-0.3,0.1c0.1-0.6-0.1-0.5,0.1-0.4c-0.2-0.3-0.2-0.9-0.3,0.1c0-0.9-0.2-1.2-0.2-0.9l0.2,0.7
						c-0.1,0.1-0.1,0-0.2,0l0-1.2c-0.4-1.6-0.4,2.5-0.8-0.1c0,0.9,0.2,0.6,0.2,1.7c-0.1-0.2-0.4-2-0.5-2c-0.2-0.7,0,1.9-0.3,1.4
						c0.1,0.5,0.2,1.7,0,2.1c-0.1-0.2-0.3-2-0.2-2.3c0,0,0.1,0.1,0.1,0.3c0-0.2,0.1-0.4,0-0.9l0,0.5c-0.1-0.5-0.3-0.4-0.3-1.2
						c-0.1,0.4,0,0.8,0.1,1c-0.2-0.7-0.3,0-0.5-0.5c0,0.3,0.1,0.8,0.1,0.8c-0.3-0.6-0.1,0.9-0.2,1.1c-0.1-0.7-0.1-1.7-0.2-1.1
						c-0.1-0.5-0.1-1.3-0.1-1.7c-0.1,0.9-0.3-0.6-0.5-0.8l0.1-0.4c0,0.2-0.1,0.2-0.1,0.2l0.1,1c-0.1-0.2-0.1-0.2-0.1-0.6
						c0,0.6,0.1,1.6,0.1,2.5c-0.1-0.5-0.2,0.5-0.3-0.8c0.2,0.4-0.1-1.3,0.1-1.5c0,0.2-0.1,0.1-0.1,0c0-0.1,0-0.3,0-0.3
						c-0.3-1.2,0,1.5-0.2,1.4c0-0.7-0.1-1.4-0.2-1.2c0.1,0,0.1,1.2,0.1,1.8c-0.2-0.6-0.1,0.4-0.2,0.4l0.1,0.3c0,0.7-0.1,0.6-0.1,0.9
						c0-0.6,0.1-0.4,0-0.7c0,1.3-0.3-1.3-0.4-0.4c-0.1-0.5-0.1-1.4-0.2-1.7c-0.1,1-0.2-1-0.4-0.2c0.1,1,0.1,0.7,0,1.7l0.2-0.7
						L29,41.8c0.1,0,0.1-0.6,0.2-0.5c0,0.8,0,0.6,0,1.4c-0.2-1.5-0.2,0.9-0.4-0.1l-0.1-2.5c-0.3-1.1-0.3,1.3-0.6,0.7l0.1,0.4
						c0,1-0.2,0.2-0.2,0.6c0-0.8-0.1-1.1-0.2-1.6c0,0.6-0.2,0-0.1,1.6l-0.2-1c-0.2-0.4-0.1,2.3-0.3,2.1c0-0.9-0.1-1.4,0-2.1
						c-0.1,0-0.1-0.1-0.1,0.4c-0.1-0.5-0.1,1.1-0.2,0.4c0,0.3,0,1.2-0.1,1.1c0-0.2,0-0.4,0-0.4c0,0.4-0.1,0.5,0,1.4
						c-0.3-2.4-0.6,0.2-0.9-1.8c-0.1,0.3-0.3,0.5-0.4,0.6c0-0.2,0-0.4,0-0.3c-0.2-0.7,0,2.1-0.3,1.4c-0.2-1.2,0.1-0.7,0-1.1
						c-0.1-2.4-0.2,0.4-0.4-1l0-0.1c-0.1-0.8-0.2,0.9-0.4,0.8c0,0,0-0.2,0-0.4c-0.1,1.2-0.3,1.6-0.4,1.9c0-0.9,0.1-0.5,0-1.4
						c-0.1,0.1,0.1,1.4-0.1,1.7c-0.1-0.5-0.2-0.9-0.2-1.8l0.1-0.1c-0.1-1.2-0.2,0.1-0.3-0.1l0-0.5c-0.2,0.2-0.2,1.5-0.4,1.5l0,0.4
						c-0.1,1.3-0.1-0.7-0.2,0.3l-0.1-1.3c-0.1,0.3-0.3,1.3-0.4,1.5c0.1-1,0.2-1.5,0.3-2.1c-0.1,0-0.3,0.1-0.3,0.8
						c0-0.1,0.1-0.5,0.1-0.3c-0.1,1-0.2,1.5-0.4,1.5c-0.1-2.5-0.5-0.6-0.7-2.5c-0.3,0.9-0.6-0.3-1-0.1c0.2,1.8-0.1,0.1,0,1.9
						c-0.1,0.1-0.1,0.1-0.1,0l-0.3-1.1c-0.1-0.5,0.1-0.4,0-0.8c-0.2-0.1-0.1-0.8-0.2-1.2c0,0.7,0,1-0.1,0.7l0.2,0.8
						c-0.2,1-0.3-1.5-0.5-0.5l0.1-0.6c-0.1,0.4-0.5,0.1-0.6,1.5c0-0.2-0.1-0.7,0-0.8c-0.3-0.2-0.7,1.6-0.9,0.8l0-0.4
						C18,41.7,18,42.4,17.9,42c0-0.2,0-0.4,0-0.4c0,0.1-0.1,0.8-0.2,0.5l0.1-0.5c-0.3-0.5-0.4,1.2-0.7,1.5c0-1.2-0.3-1.5-0.4-1.7
						l0-0.2c-0.4-0.1-0.6,1.1-0.9,1.5c-0.2-1.2-0.7-0.4-1-1c0.1,0.2,0,0.8-0.1,0.9c-0.1-0.2-0.2,0.8-0.2-0.2l0,0
						c-0.1-0.9-0.2-0.6-0.3-0.7l0,1.2c-0.3-1.7-0.8,0.7-1-0.8c-0.1,0.3-0.2,0.3-0.2,0.6l0-0.6c-0.2-0.1-0.3-0.2-0.6,0l0.1-0.4
						c-0.1,0-0.2,1.7-0.3,1.8l0-0.9c-0.3,0-0.5-0.6-0.8,0.2c0-0.1,0-0.4,0.1-0.4c-0.1,0-0.5-0.4-0.4,0.6c0-0.7-0.3,0-0.4,0.3l0-0.5
						c-0.1,0.7-0.1,0.8-0.3,1c0-0.1,0-0.4,0-0.3c-0.1-0.2-0.1,0.5-0.3,0.2l0.1-0.3c-0.1,0-0.1,0.1-0.2,0.5c-0.1,0.2-0.3-0.1-0.3-0.5
						c0,0.3-0.1,0.6-0.2,0.5c0-0.2,0-0.3,0-0.3C9.1,43.5,9,44.4,8.9,44c0-0.1,0-0.2,0-0.3c0.2,0,0.3,0,0.3,0c0-0.4-0.1-0.5,0-1.1
						c-0.1,0.3-0.3,1-0.5,0.9c0,0,0-0.1,0-0.1l0,0c0,0-0.1,0-0.1,0.1c0-0.1-0.1-0.1-0.1-0.1c0-0.3-0.2-0.1-0.2-0.1
						c0,0.4-0.1,0.4,0,0.7c0,0,0-0.1,0.1-0.1c0,0,0,0,0,0l0,0c0,0,0.1,0,0.2,0c-0.1,0.2-0.1,0.4-0.2,0.2c0,0.3-0.1,0.5-0.1,0.7
						c-0.1-0.6-0.3-0.9-0.3-1.2c-0.2,0.3-0.5,0.2-0.7,0.9c-0.1,0.1-0.1-0.2-0.1-0.3c0-0.1,0.1-0.1,0.1-0.2c-0.1,0.2-0.4,0.1-0.4,0.6
						c-0.2-0.2,0.1-0.4-0.1-0.3l0-0.1c-0.2-0.3-0.4,0-0.6,0.2c-0.2,0.3-0.4,0.5-0.6,0.1c0,0,0,0.1,0.1,0.1c-0.5-0.3-1.1,0.3-1.7-0.1
						c-0.2-0.1-0.2,0.1-0.3,0.3l0-0.2l-0.2,0.3c-0.2,0.2-0.4-0.5-0.7-0.1l0,0.1c-0.1,0-0.3,0.1-0.3,0c0,0-0.1,0.1-0.1,0.1v-0.1
						l-0.3,0.2c-0.2,0,0-0.3-0.2-0.3c-0.1,0-0.3,0.2-0.3,0.3c0,0,0.1,0,0.1,0.1l-0.1,0c0,0.2-0.1,0.4,0.1,0.5L2,45.3l0,0.1l-0.1,0
						c0.1,0.1,0.1,0,0.2,0c0,0.1,0,0.1,0.1,0.1l0.2-0.2c0,0.1-0.1,0.2,0,0.3c0.1-0.1-0.1-0.2,0.1-0.3c0.1,0.1,0,0.2,0.1,0.1
						c0,0.1,0,0.1,0,0.1c0.1-0.1,0.2,0,0.3-0.1c0.1,0.2,0.3,0,0.3,0.3c0-0.1,0.2-0.2,0.2-0.2c-0.1,0.3,0.3,0.1,0.2,0.5
						c0.1-0.3,0.4-0.1,0.6-0.2c0,0,0,0.1,0,0.1c0.1,0.1,0.1,0.2,0.2,0.3c0-0.3,0.2-0.4,0.3-0.6c0.1,0.4-0.1,0.4-0.1,0.7
						c0-0.3,0.2-0.2,0.2-0.5c0.1,0.2,0.1,0.1,0.1,0.4c0-0.5,0.1-0.1,0.2-0.3c0.1,0.3,0,0.5,0.2,0.3C5.2,46.4,5,46.6,5,46.6z
						 M8.7,46.2L8.7,46.2C8.6,46.2,8.6,46.2,8.7,46.2C8.6,46.2,8.6,46.2,8.7,46.2z M9,46.2c0,0-0.1,0-0.1,0c0-0.2,0-0.3,0-0.3
						C8.9,46,8.9,46.1,9,46.2z M8.4,43.2C8.4,43.2,8.4,43.2,8.4,43.2c0,0.1,0,0.1,0,0.2l0,0.1C8.4,43.4,8.4,43.3,8.4,43.2z"/>
					<path fill="#FFFFFF" d="M8.3,43.8C8.3,43.8,8.3,43.8,8.3,43.8c0,0.1,0,0.1,0,0.1L8.3,43.8L8.3,43.8z"/>
					<path fill="#FFFFFF" d="M35.8,42.8L35.8,42.8c0,0,0,0.1,0,0.1C35.8,42.9,35.8,42.8,35.8,42.8z"/>
					<polygon fill="#FFFFFF" points="13.2,47.9 13.2,47.7 13.2,47.9 					"/>
					<path fill="#FFFFFF" d="M37.7,45.4c0,0.1,0,0.1,0,0.2C37.8,45.5,37.7,45.5,37.7,45.4z"/>
					<path fill="#FFFFFF" d="M38.4,45.3l0.1,0.2C38.5,45.4,38.5,45.3,38.4,45.3z"/>
					<path fill="#FFFFFF" d="M39,45.4c0-0.1,0-0.2,0-0.3l0,0L39,45.4z"/>
					<path fill="#FFFFFF" d="M30.3,49C30.3,49,30.3,49,30.3,49C30.2,49.3,30.3,49.2,30.3,49z"/>
					<path fill="#FFFFFF" d="M32.8,46c0,0.2,0,0.4,0,0.5C32.8,46.6,32.8,46.6,32.8,46z"/>
					<path fill="#FFFFFF" d="M27.4,50.3C27.4,50.3,27.4,50.3,27.4,50.3C27.3,50.3,27.3,50.3,27.4,50.3L27.4,50.3z"/>
					<path fill="#FFFFFF" d="M32.6,46.5c0.1,0.2,0.1,0.2,0.1,0C32.7,46.4,32.6,46.3,32.6,46.5z"/>
					<path fill="#FFFFFF" d="M41.4,44.4L41.4,44.4C41.4,44.4,41.4,44.4,41.4,44.4L41.4,44.4z"/>
					<path fill="#FFFFFF" d="M41.4,44.3L41.4,44.3C41.4,44.3,41.4,44.3,41.4,44.3z"/>
					<path fill="#FFFFFF" d="M41.5,44.2L41.5,44.2C41.4,44.3,41.5,44.3,41.5,44.2z"/>
					<path fill="#FFFFFF" d="M40.6,44.7l0,0.1C40.7,44.8,40.6,44.7,40.6,44.7z"/>
					<path fill="#FFFFFF" d="M40.4,44.8c0.1,0,0.2,0.2,0.2,0.1l0-0.1C40.6,45,40.5,44.6,40.4,44.8z"/>
					<path fill="#FFFFFF" d="M39.3,42.9l0.2,0.2c-0.1-0.2-0.1-0.5,0-0.5C39.2,42,39.6,43,39.3,42.9z"/>
					<path fill="#FFFFFF" d="M38.7,42.5c0.1-0.1,0-0.3,0-0.5C38.6,42.3,38.6,42.3,38.7,42.5z"/>
					<path fill="#FFFFFF" d="M34.4,42l-0.1-0.9C34.3,41.2,34.4,41.4,34.4,42z"/>
					<polygon fill="#FFFFFF" points="34,46.8 34.1,47.3 34.1,46.5 					"/>
					<polygon fill="#FFFFFF" points="33,40 33.1,39.9 32.9,40.2 					"/>
					<path fill="#FFFFFF" d="M26.1,40.7l0.1,1.2C26.2,41.6,26.1,40.3,26.1,40.7z"/>
					<path fill="#FFFFFF" d="M23.1,42.4c-0.1-0.5-0.1-0.8-0.2-0.3C23,42.1,23.1,42.5,23.1,42.4z"/>
					<polygon fill="#FFFFFF" points="14,42.2 14.1,41.9 13.9,42.2 					"/>
				</g>
			</g>
		</g>
	</g>
</g>
</svg>
