<?xml version="1.0" encoding="utf-8"?>
<!-- Generator: Adobe Illustrator 18.0.0, SVG Export Plug-In . SVG Version: 6.00 Build 0)  -->
<!DOCTYPE svg PUBLIC "-//W3C//DTD SVG 1.1//EN" "http://www.w3.org/Graphics/SVG/1.1/DTD/svg11.dtd">
<svg version="1.1" id="Layer_1" xmlns="http://www.w3.org/2000/svg" xmlns:xlink="http://www.w3.org/1999/xlink" x="0px" y="0px"
	 viewBox="0 0 375 148" enable-background="new 0 0 375 148" xml:space="preserve">
<g>
	<polygon fill="#1C1C1C" points="338.7,104 344.7,104 341.7,97 	"/>
	<path fill="#1C1C1C" d="M296.2,63.1c-0.5-1.8-0.8-3.6-0.8-5.3c0-0.4,0-0.8,0-1.2c0-0.4,0.1-0.8,0.1-1.2c-1.1,1.2-2,2.5-2.7,4
		c-0.7,1.5-1.1,3.1-1.1,4.8c0,1.7,0.4,3,1.1,3.8c0.7,0.8,1.7,1.3,3,1.4c0.3,0,0.8-0.1,1.4-0.4c0.6-0.3,1.4-0.8,2.3-1.6
		C297.9,66.3,296.8,64.9,296.2,63.1z"/>
	<path fill="#1C1C1C" d="M307.9,96H304v15h3.9c2.4,0,4.3-1,5.6-2.3c1.4-1.3,2-3.2,2-5.3c0-2.2-0.7-4.1-2-5.3
		C312.1,96.8,310.3,96,307.9,96z"/>
	<path fill="#1C1C1C" d="M303.6,52.7c-0.5,0-1,0.3-1.4,0.8c-0.5,0.5-0.9,1.1-1.2,1.9c-0.4,0.7-0.6,1.5-0.9,2.4
		c-0.2,0.9-0.3,1.7-0.3,2.5c0,0.7,0.1,1.6,0.4,2.7c0.3,1.1,0.8,1.8,1.5,2c0.5-0.7,1-1.5,1.4-2.4c0.4-0.9,0.7-1.9,1-3.1
		c0.1-0.4,0.2-0.8,0.3-1.3c0.1-0.4,0.1-0.9,0.1-1.4c0-1,0-1.9-0.1-2.7C304.2,53.3,304,52.8,303.6,52.7z"/>
	<path fill="#1C1C1C" d="M277.2,57c3.4-2.1,6.3-5.3,8.4-9.5c0.7-1.4,1.3-2.8,1.8-4.1c0.5-1.3,0.7-2.4,0.7-3.3c0-0.8-0.3-1.6-1-2.2
		c-0.6-0.6-1.4-1.1-2.4-1.5c-1-0.4-2-0.7-3.1-0.9c-1.1-0.2-2.2-0.3-3.2-0.3c-1.7,0-3.4,0.2-5.1,0.5c-1.6,0.3-3.2,0.7-4.6,1.3
		c-1.4,0.5-2.8,1.1-4,1.7c-1.2,0.6-2.2,1.2-3.1,1.7c0.2,0,0.6,0.1,1.2,0.3c0.6,0.2,1.2,0.6,1.8,1c0.6,0.5,1.1,1,1.6,1.5
		c0.5,0.6,0.7,1.2,0.7,1.9c0,0.3,0,0.6,0,0.8c0,0.2,0,0.4-0.1,0.7c-0.1,0.3-0.2,0.6-0.4,1c-0.2,0.4-0.5,1-0.9,1.7
		c-0.5,0.9-0.9,1.7-1.2,2.5c-0.4,0.7-0.7,1.5-1.1,2.2c-0.4,0.7-0.7,1.5-1,2.4c-0.3,0.8-0.7,1.8-1.2,3c0.5,0.3,1.3,0.5,2.4,0.6
		c1.1,0.1,2,0.1,2.8,0.1C270.1,60.1,273.8,59.1,277.2,57z"/>
	<path fill="#1C1C1C" d="M0,0v148h375V0H0z M275,113h-2V97.8l-7,7.8l-7-7.8V113h-3V93h2.8l6.9,8.1l7-8.1h2.3V113z M294,113h-11V93
		h11v3h-9v5h9v3h-9v7h9V113z M300.1,77.5c-0.5,0.8-1.4,1.6-2.6,2.2c-1.2,0.6-2.8,0.9-4.8,1c-3.7,0.1-7.1-0.3-10.1-1.4
		c-3-1-5.8-2.4-8.3-4.2c-2.6-1.8-5-3.8-7.2-6.2c-2.2-2.3-4.4-4.7-6.6-7.2c-0.1,0.1-0.3,0.4-0.4,0.7c-0.1,0.4-0.2,0.7-0.3,1.1
		c-0.1,0.4-0.2,0.7-0.3,1.1c-0.1,0.3-0.1,0.6-0.1,0.8c-0.3,1.1-0.5,2-0.6,2.7c-0.2,0.7-0.3,1.4-0.4,2.1c-0.1,0.7-0.2,1.3-0.2,1.6
		c-0.1,0-0.4-0.1-0.8-0.2c-0.4-0.1-0.9-0.3-1.3-0.6c-0.5-0.3-0.9-0.7-1.3-1.2c-0.4-0.5-0.6-1.1-0.6-2c0-1.4,0.2-2.7,0.5-4
		c0.4-1.3,0.7-2.7,1-4.2c-1.5-0.7-2.7-1.4-3.6-2.2c-0.9-0.8-1.7-1.5-2.2-2.1c-0.5-0.6-1.1-1.4-1.6-2.1c-0.1,0-0.2,0-0.2-0.1V53
		c0-0.3,0.3-0.5,0.6-0.5c0.1,0,0.4,0.2,0.7,0.7c0.3,0.5,0.7,1,1.3,1.6c0.5,0.6,1.3,1.2,2.1,1.8c0.9,0.6,2,1,3.3,1.3
		c0.3-1.2,0.6-2.3,0.9-3.4c0.4-1,0.7-2,1.1-2.9c0.4-0.9,0.7-1.8,1.1-2.8c0.4-0.9,0.7-2,1-3.1l0.7-2c0.2-0.6,0.4-1.2,0.5-1.7
		c0.2-0.6,0.2-1.1,0.2-1.4c-1.7,1-3.1,1.9-4.1,2.8c-1.1,0.9-2,1.7-2.6,2.4c-0.6,0.7-1.1,1.2-1.4,1.6c-0.3,0.4-0.5,0.6-0.6,0.6
		c-1.2-0.9-1.9-1.8-2.4-2.7c-0.4-0.9-0.6-1.7-0.6-2.4c0-0.8,0-1.4,0.1-1.8c0.1-0.4,0.3-0.8,0.6-1.1c0.3-0.3,0.6-0.4,1.1-0.7
		c0.4-0.3,1-0.1,1.7-1.1h0.1c0.9-1,2.2-1.7,3.8-2.5c1.6-0.9,3.5-1.8,5.5-2.6c2.1-0.8,4.3-1.5,6.7-2c2.4-0.5,4.8-0.8,7.3-0.8
		c0.8,0,2.2,0.1,4.1,0.2c1.9,0.2,3.9,0.6,5.8,1.2c2,0.7,3.7,1.7,5.2,2.9c1.5,1.3,2.2,3.1,2.2,5.4c0,0.9-0.1,1.8-0.4,2.7
		c-0.3,0.9-0.5,1.8-0.9,2.5c-1.2,2.9-2.8,5.4-4.6,7.6c-1.9,2.2-3.9,4-6.2,5.5c-2.3,1.5-4.6,2.6-7,3.3c-2.4,0.7-4.8,1.1-7.1,1.1
		c-0.3,0-0.5,0-0.8,0c-0.3,0-0.5,0-0.8,0c1.4,1.7,3.1,3.3,5.2,4.8c2,1.5,4.2,2.7,6.4,3.8c2.3,1.1,4.6,1.9,6.9,2.5
		c2.4,0.6,4.6,0.9,6.8,0.9c1.7,0,3.1-0.1,4.3-0.2c1.2-0.2,2.5-0.7,3.8-1.7c0.6,0.6,1,1.4,1.1,2.3C300.8,75.8,300.6,76.7,300.1,77.5z
		 M317.4,107.8c-0.7,1.4-1.7,2.5-3,3.4c-0.8,0.6-1.8,1.1-2.8,1.3s-2.3,0.5-3.7,0.5H301V93h6.9c1.4,0,2.7,0.4,3.7,0.7
		c1,0.3,2,0.8,2.8,1.4c1.3,0.9,2.3,2.1,3,3.5c0.7,1.4,1.1,2.9,1.1,4.6C318.5,104.8,318.1,106.4,317.4,107.8z M328,113h-3V93h3V113z
		 M348.3,113l-2.5-5h-8.2l-2.5,5h-2.8l8.4-20h2l8.5,20H348.3z M355.1,36.7c-1.8,0-5.5,0.1-8.6,0.1c-0.1,0.4-0.2,0.8-0.3,1.3
		c-0.3,0.8-0.6,1.7-1.1,2.6c-0.4,0.9-0.9,1.8-1.4,2.8c-0.5,1-0.9,2-1.3,2.9c2.2,0.2,3.7,0.3,4.4,0.4c0.7,0.1,1.1,0.2,1.1,0.3
		c0,0.2-0.6,0.3-1.8,0.3c-1.2,0-2.6,0.1-4.3,0.1c-0.6,1.3-1.1,2.6-1.7,3.9c-0.5,1.3-1.1,2.7-1.7,4.2c0.4,0.9,1,1.9,1.6,3
		c0.6,1.1,1.2,2.3,1.7,3.6c0.5,1.3,0.9,2.7,1.3,4.2c0.4,1.5,0.5,3.1,0.5,4.9c0,2.5-0.5,4.7-1.4,6.5c-0.9,1.8-1.9,3.3-3.1,4.5
		c-1.2,1.2-2.4,2.1-3.7,2.7c-1.3,0.6-2.2,1-2.9,1.1c-0.3,0.1-0.6,0.1-1,0.1c-1.2,0-2.1-0.2-2.7-0.7c-0.6-0.5-1.1-1-1.4-1.6
		c-0.3-0.6-0.5-1.3-0.6-2.1c-0.1-0.7-0.1-1.4-0.1-2c0-2.1,0.3-4.5,0.8-7c0.3-1.6,0.7-3.1,1.1-4.7c-0.1,0-0.2,0.1-0.3,0.1
		c-0.9,0.4-1.9,0.5-3.1,0.5c-0.8,0-1.6-0.2-2.4-0.5c-0.3,0.5-1.1,1.1-2.3,2c-1.2,0.9-2.6,1.3-4.2,1.3c-1.4,0-2.5-0.3-3.4-0.9
		c-0.9-0.6-1.7-1.3-2.3-2.2c-0.4-0.6-0.6-1.1-0.9-1.7c-0.1,0.1-0.1,0.2-0.2,0.2c-0.5,0.5-1.2,0.9-2,1.3c-0.9,0.4-1.9,0.5-3.1,0.5
		c-0.8,0-1.6-0.2-2.4-0.5c-0.3,0.5-1.1,1.1-2.3,2c-1.2,0.9-2.6,1.3-4.2,1.3c-1.4,0-2.5-0.3-3.4-0.9c-0.9-0.6-1.7-1.3-2.3-2.2
		c-0.6-0.9-1-1.9-1.3-2.9c-0.3-1-0.4-2-0.4-3c0-2.5,0.4-4.7,1.3-6.7c0.8-2,1.8-3.7,2.8-5.1c1.1-1.4,2.1-2.5,3.1-3.3
		c1-0.8,1.7-1.3,2.1-1.4c0.1,0,0.3,0.1,0.5,0.2c0.2,0.2,0.6,0.7,1.1,1.5c0.5-0.4,1.1-0.7,1.7-1.1c0.6-0.3,1.5-0.5,2.5-0.5
		c1,0,1.9,0.2,2.6,0.7c0.7,0.5,1.3,1,1.7,1.7c0.4,0.6,0.7,1.3,1,2c0.2,0.7,0.3,1.3,0.3,1.7c0.1,0.3,0.1,0.6,0.1,0.9
		c0,0.3,0,0.6,0,0.9c0,2.3-0.5,4.5-1.5,6.6c-1,2.1-2,3.8-3,5.1c0.3,0.1,0.6,0.2,1.2,0.2c0.6,0,1.1-0.1,1.6-0.3
		c0.5-0.2,1-0.5,1.4-0.8c0.2-0.1,0.3-0.2,0.4-0.3c-0.2-0.7-0.2-1.5-0.2-2.2c0-2.5,0.4-4.7,1.3-6.7c0.8-2,1.8-3.7,2.8-5.1
		c1.1-1.4,2.1-2.5,3.1-3.3c1-0.8,1.7-1.3,2.1-1.4c0.1,0,0.3,0.1,0.5,0.2c0.2,0.2,0.6,0.7,1.1,1.5c0.5-0.4,1.1-0.7,1.7-1.1
		c0.6-0.3,1.5-0.5,2.5-0.5c1,0,1.9,0.2,2.6,0.7c0.7,0.5,1.3,1,1.7,1.7c0.4,0.6,0.7,1.3,1,2c0.2,0.7-0.1,1.3-0.1,1.7
		c0.1,0.3-0.3,0.6-0.3,0.9c0,0.3,0,0.6,0,0.9c0,2.3-0.1,4.5-1.1,6.6c-1,2.1-1.8,3.8-2.8,5.1c0.3,0.1,0.8,0.2,1.3,0.2
		c0.6,0,1.2-0.1,1.7-0.3c0.5-0.2,1-0.4,1.4-0.7c0,0,0,0,0,0c0.8-2.6,1.6-5,2.4-7.4c0.8-2.4,1.5-4.4,2.1-6.2
		c-1.2-2.1-2.1-3.6-2.7-4.5c-0.6-0.9-0.9-1.5-0.9-1.7c0-0.1,0.1-0.2,0.2-0.3c0.1-0.1,0.3-0.1,0.4-0.1c0.8,0.1,1.6,0.2,2.5,0.3
		c0.9,0.1,1.8,0.2,2.7,0.3c0.8-2.1,1.5-3.9,2-5.2c0.5-1.4,1-2.7,1.5-4l0.7-2c0.2-0.6,0.4-1.3,0.5-1.9c0.2-0.6,0.3-1.6,0.3-1.6h0.8
		v0.4l17.9-0.2C359.9,31.2,358.6,36.7,355.1,36.7z"/>
	<path fill="#1C1C1C" d="M334.7,49.8c0.1-0.3,0.2-0.5,0.3-0.9c0.1-0.4,0.2-0.9,0.3-0.9c-0.8,0-1.4,0-1.6,0c-0.3,0-0.4-0.1-0.4,0.1
		c0,0.1,0.1,0.1,0.2,0.2c0.2,0.3,0.4,0.5,0.6,0.7C334.3,49.2,334.5,49.5,334.7,49.8z"/>
	<path fill="#1C1C1C" d="M334,68c-1.1,3.4-1.9,6.7-2.4,10c-0.1,0.4-0.1,0.8-0.1,1.2c0,0.4,0,0.9,0,1.3c0,0.6,0.1,1.1,0.2,1.5
		c0.2,0.4,0.5,0.6,1,0.6c1.4,0,2.5-0.5,3.5-1.4c1-0.9,1.8-2.1,2.5-3.4c0.7-1.3,1.2-2.7,1.5-4.1c0.3-1.4,0.5-2.6,0.5-3.6
		c0-2.2-0.3-4.3-1-6.3c-0.7-2-1.4-3.9-2.2-5.5C336.3,61.4,335.1,64.6,334,68z"/>
	<path fill="#1C1C1C" d="M317.1,63.1c-0.5-1.8-0.8-3.6-0.8-5.3c0-0.4,0-0.8,0-1.2c0-0.4,0.1-0.8,0.1-1.2c-1.1,1.2-2,2.5-2.7,4
		c-0.7,1.5-1.1,3.1-1.1,4.8c0,1.7,0.4,3,1.1,3.8c0.7,0.8,1.7,1.3,3,1.4c0.3,0,0.8-0.1,1.4-0.4c0.6-0.3,1.4-0.8,2.3-1.6
		C318.7,66.3,317.6,64.9,317.1,63.1z"/>
	<path fill="#1C1C1C" d="M324.5,52.7c-0.5,0-1,0.3-1.4,0.8c-0.5,0.5-0.9,1.1-1.2,1.9c-0.4,0.7-0.6,1.5-0.9,2.4
		c-0.2,0.9-0.3,1.7-0.3,2.5c0,0.7,0.1,1.6,0.4,2.7c0.3,1.1,0.8,1.8,1.5,2c0.5-0.7,1-1.5,1.4-2.4c0.4-0.9,0.7-1.9,1-3.1
		c0.1-0.4,0.2-0.8,0.3-1.3c0.1-0.4,0.1-0.9,0.1-1.4c0-1,0-1.9-0.1-2.7C325.1,53.3,324.8,52.8,324.5,52.7z"/>
</g>
</svg>
